<svg xmlns="http://www.w3.org/2000/svg" width="960" height="540" viewBox="0 0 960 540">
  <rect width="100%" height="100%" fill="#0d1117"/>
  <rect width="960" height="44" fill="#161b22"/>
  <text x="20" y="28" fill="#e6edf3" font-family="system-ui,sans-serif" font-size="14" font-weight="700">Polymarket Bot</text>
  <rect x="140" y="12" width="72" height="22" rx="6" fill="#1f2630"/>
  <text x="152" y="27" fill="#58a6ff" font-family="system-ui,sans-serif" font-size="12" font-weight="600">0H1>@4</text>
  <text x="224" y="27" fill="#8b949e" font-family="system-ui,sans-serif" font-size="12">Backtest</text>
  <text x="296" y="27" fill="#8b949e" font-family="system-ui,sans-serif" font-size="12">>=A>;L</text>
  <text x="368" y="27" fill="#8b949e" font-family="system-ui,sans-serif" font-size="12">0AB@>9:8</text>
  <rect x="800" y="10" width="140" height="24" rx="12" fill="#1f2630"/>
  <circle cx="814" cy="22" r="5" fill="#3fb950"/>
  <text x="826" y="26" fill="#e6edf3" font-family="system-ui,sans-serif" font-size="11"> 01>B05B 1G 4<</text>
  <rect x="20" y="58" width="140" height="70" rx="10" fill="#161b22" stroke="#2d333b"/>
  <text x="32" y="78" fill="#8b949e" font-family="system-ui,sans-serif" font-size="10"> </text>
  <text x="32" y="102" fill="#e6edf3" font-family="system-ui,sans-serif" font-size="20" font-weight="700">PAPER</text>
  <rect x="172" y="58" width="140" height="70" rx="10" fill="#161b22" stroke="#2d333b"/>
  <text x="184" y="78" fill="#8b949e" font-family="system-ui,sans-serif" font-size="10">!</text>
  <text x="184" y="102" fill="#e6edf3" font-family="system-ui,sans-serif" font-size="20" font-weight="700">$102.34</text>
  <rect x="324" y="58" width="140" height="70" rx="10" fill="#161b22" stroke="#2d333b"/>
  <text x="336" y="78" fill="#8b949e" font-family="system-ui,sans-serif" font-size="10">PNL  ,</text>
  <text x="336" y="102" fill="#3fb950" font-family="system-ui,sans-serif" font-size="20" font-weight="700">+$1.24</text>
  <rect x="476" y="58" width="140" height="70" rx="10" fill="#161b22" stroke="#2d333b"/>
  <text x="488" y="78" fill="#8b949e" font-family="system-ui,sans-serif" font-size="10">!</text>
  <text x="488" y="102" fill="#3fb950" font-family="system-ui,sans-serif" font-size="20" font-weight="700">+$75.44</text>
  <rect x="20" y="148" width="920" height="180" rx="10" fill="#161b22" stroke="#2d333b"/>
  <text x="32" y="172" fill="#e6edf3" font-family="system-ui,sans-serif" font-size="14" font-weight="600">B:@KBK5 ?>78F88 (1)</text>
  <text x="32" y="200" fill="#8b949e" font-family="system-ui,sans-serif" font-size="11">"</text>
  <text x="100" y="200" fill="#8b949e" font-family="system-ui,sans-serif" font-size="11"> .</text>
  <text x="170" y="200" fill="#8b949e" font-family="system-ui,sans-serif" font-size="11">%</text>
  <text x="240" y="200" fill="#8b949e" font-family="system-ui,sans-serif" font-size="11">EDGE</text>
  <line x1="32" y1="208" x2="928" y2="208" stroke="#2d333b"/>
  <text x="32" y="232" fill="#e6edf3" font-family="system-ui,sans-serif" font-size="13">BTC</text>
  <rect x="100" y="218" width="36" height="18" rx="9" fill="rgba(63,185,80,0.15)"/>
  <text x="108" y="231" fill="#3fb950" font-family="system-ui,sans-serif" font-size="11" font-weight="600">UP</text>
  <text x="170" y="232" fill="#e6edf3" font-family="system-ui,sans-serif" font-size="13">0.412</text>
  <text x="240" y="232" fill="#3fb950" font-family="system-ui,sans-serif" font-size="13">+0.073</text>
  <rect x="20" y="348" width="920" height="172" rx="10" fill="#161b22" stroke="#2d333b"/>
  <text x="32" y="372" fill="#e6edf3" font-family="system-ui,sans-serif" font-size="14" font-weight="600">>@>=:0 A83=0;>2</text>
  <text x="32" y="410" fill="#e6edf3" font-family="system-ui,sans-serif" font-size="22" font-weight="700">142</text>
  <text x="32" y="426" fill="#8b949e" font-family="system-ui,sans-serif" font-size="10">=0945=></text>
  <text x="180" y="410" fill="#e6edf3" font-family="system-ui,sans-serif" font-size="22" font-weight="700">118</text>
  <text x="180" y="426" fill="#8b949e" font-family="system-ui,sans-serif" font-size="10">>B:;>=5=></text>
  <text x="328" y="410" fill="#3fb950" font-family="system-ui,sans-serif" font-size="22" font-weight="700">6</text>
  <text x="328" y="426" fill="#8b949e" font-family="system-ui,sans-serif" font-size="10">8A?>;=5=></text>
</svg>
