<svg xmlns="http://www.w3.org/2000/svg" width="900" height="400" viewBox="0 0 900 400">
  <rect width="100%" height="100%" fill="#0b1220"/>
  <text x="40" y="36" fill="#e2e8f0" font-family="system-ui,sans-serif" font-size="18" font-weight="700">EV Scalp Pro Architecture</text>
  <rect x="340" y="60" width="220" height="48" rx="10" fill="#161b22" stroke="#58a6ff" stroke-width="2"/>
  <text x="450" y="90" fill="#e2e8f0" font-family="system-ui,sans-serif" font-size="14" font-weight="600" text-anchor="middle">Browser (React UI)</text>
  <line x1="450" y1="108" x2="450" y2="130" stroke="#334155" stroke-width="2" marker-end="url(#arrow)"/>
  <rect x="340" y="130" width="220" height="48" rx="10" fill="#161b22" stroke="#2d333b"/>
  <text x="450" y="160" fill="#e2e8f0" font-family="system-ui,sans-serif" font-size="14" font-weight="600" text-anchor="middle">FastAPI Webapp</text>
  <line x1="450" y1="178" x2="450" y2="200" stroke="#334155" stroke-width="2"/>
  <rect x="300" y="200" width="300" height="48" rx="10" fill="#161b22" stroke="#3fb950" stroke-width="2"/>
  <text x="450" y="230" fill="#3fb950" font-family="system-ui,sans-serif" font-size="14" font-weight="600" text-anchor="middle">Nautilus EvScalpStrategy</text>
  <line x1="350" y1="248" x2="200" y2="300" stroke="#334155" stroke-width="2"/>
  <line x1="450" y1="248" x2="450" y2="300" stroke="#334155" stroke-width="2"/>
  <line x1="550" y1="248" x2="700" y2="300" stroke="#334155" stroke-width="2"/>
  <rect x="80" y="300" width="240" height="48" rx="10" fill="#161b22" stroke="#2d333b"/>
  <text x="200" y="330" fill="#e2e8f0" font-family="system-ui,sans-serif" font-size="13" text-anchor="middle">Polymarket CLOB WS</text>
  <rect x="330" y="300" width="240" height="48" rx="10" fill="#161b22" stroke="#2d333b"/>
  <text x="450" y="330" fill="#e2e8f0" font-family="system-ui,sans-serif" font-size="13" text-anchor="middle">Binance REST</text>
  <rect x="580" y="300" width="240" height="48" rx="10" fill="#161b22" stroke="#2d333b"/>
  <text x="700" y="330" fill="#e2e8f0" font-family="system-ui,sans-serif" font-size="13" text-anchor="middle">trade_history.jsonl</text>
  <defs>
    <marker id="arrow" markerWidth="8" markerHeight="8" refX="6" refY="3" orient="auto">
      <path d="M0,0 L6,3 L0,6 Z" fill="#334155"/>
    </marker>
  </defs>
</svg>
