<svg xmlns="http://www.w3.org/2000/svg" width="960" height="400" viewBox="0 0 960 400">
  <rect width="100%" height="100%" fill="#0b1220"/>
  <text x="40" y="36" fill="#e2e8f0" font-family="system-ui,sans-serif" font-size="18" font-weight="700">Performance  432 A45;:8</text>
  <rect x="40" y="60" width="200" height="90" rx="12" fill="#111827" stroke="#1e293b"/>
  <text x="56" y="88" fill="#94a3b8" font-family="system-ui,sans-serif" font-size="11">) PNL</text>
  <text x="56" y="120" fill="#22c55e" font-family="system-ui,sans-serif" font-size="28" font-weight="800">+$75.44</text>
  <rect x="260" y="60" width="200" height="90" rx="12" fill="#111827" stroke="#1e293b"/>
  <text x="276" y="88" fill="#94a3b8" font-family="system-ui,sans-serif" font-size="11">WIN RATE</text>
  <text x="276" y="120" fill="#e2e8f0" font-family="system-ui,sans-serif" font-size="28" font-weight="800">67.8%</text>
  <rect x="480" y="60" width="200" height="90" rx="12" fill="#111827" stroke="#1e293b"/>
  <text x="496" y="88" fill="#94a3b8" font-family="system-ui,sans-serif" font-size="11">TAKE PROFIT</text>
  <text x="496" y="120" fill="#22c55e" font-family="system-ui,sans-serif" font-size="28" font-weight="800">+$195</text>
  <rect x="700" y="60" width="220" height="90" rx="12" fill="#111827" stroke="#1e293b"/>
  <text x="716" y="88" fill="#94a3b8" font-family="system-ui,sans-serif" font-size="11">!</text>
  <text x="716" y="120" fill="#e2e8f0" font-family="system-ui,sans-serif" font-size="28" font-weight="800">432</text>
  <text x="40" y="190" fill="#94a3b8" font-family="system-ui,sans-serif" font-size="13">PnL ?> 0:B820<</text>
  <text x="40" y="230" fill="#e2e8f0" font-family="system-ui,sans-serif" font-size="13">BTC</text>
  <rect x="80" y="218" width="700" height="16" rx="4" fill="#1e293b"/>
  <rect x="80" y="218" width="280" height="16" rx="4" fill="#22c55e"/>
  <text x="800" y="230" fill="#22c55e" font-family="system-ui,sans-serif" font-size="13" font-weight="600">+$29.60 · 76%</text>
  <text x="40" y="270" fill="#e2e8f0" font-family="system-ui,sans-serif" font-size="13">ETH</text>
  <rect x="80" y="258" width="700" height="16" rx="4" fill="#1e293b"/>
  <rect x="80" y="258" width="210" height="16" rx="4" fill="#22c55e"/>
  <text x="800" y="270" fill="#22c55e" font-family="system-ui,sans-serif" font-size="13" font-weight="600">+$22.06 · 67%</text>
  <text x="40" y="310" fill="#e2e8f0" font-family="system-ui,sans-serif" font-size="13">SOL</text>
  <rect x="80" y="298" width="700" height="16" rx="4" fill="#1e293b"/>
  <rect x="80" y="298" width="225" height="16" rx="4" fill="#22c55e"/>
  <text x="800" y="310" fill="#22c55e" font-family="system-ui,sans-serif" font-size="13" font-weight="600">+$23.78 · 64%</text>
  <text x="40" y="360" fill="#94a3b8" font-family="system-ui,sans-serif" font-size="12">AB>G=8:: trade_history.jsonl · paper + live mix</text>
</svg>
