<svg xmlns="http://www.w3.org/2000/svg" width="900" height="360" viewBox="0 0 900 360">
  <rect width="100%" height="100%" fill="#0b1220"/>
  <text x="48" y="28" fill="#e2e8f0" font-size="18" font-family="Inter,sans-serif" font-weight="700">Cumulative PnL — 432 сделок</text>
  <text x="852" y="28" fill="#22c55e" font-size="16" font-family="Inter,sans-serif" text-anchor="end" font-weight="700">+$75.44</text>
  <line x1="48" y1="312.0" x2="852" y2="312.0" stroke="#334155"/>
  <polyline fill="none" stroke="#22c55e" stroke-width="2.5" points="48.0,308.7 49.9,306.3 51.7,303.2 53.6,300.4 55.5,297.8 57.3,292.5 59.2,290.7 61.1,286.9 62.9,298.7 64.8,297.6 66.7,292.0 68.5,290.2 70.4,286.7 72.3,282.9 74.1,278.8 76.0,275.2 77.8,270.0 79.7,268.8 81.6,265.3 83.4,262.5 85.3,258.9 87.2,257.8 89.0,254.7 90.9,251.1 92.8,243.9 94.6,241.0 96.5,239.0 98.4,237.4 100.2,235.0 102.1,232.7 104.0,228.9 105.8,239.9 107.7,253.0 109.6,248.5 111.4,245.4 113.3,241.8 115.2,236.7 117.0,249.6 118.9,247.2 120.8,258.8 122.6,271.4 124.5,269.3 126.3,265.2 128.2,278.1 130.1,273.2 131.9,270.2 133.8,265.4 135.7,264.7 137.5,262.7 139.4,256.8 141.3,249.0 143.1,228.8 145.0,226.5 146.9,225.7 148.7,222.6 150.6,220.5 152.5,217.2 154.3,213.5 156.2,211.3 158.1,208.6 159.9,206.7 161.8,219.0 163.7,216.4 165.5,215.3 167.4,212.6 169.3,211.2 171.1,209.7 173.0,217.3 174.8,212.6 176.7,210.6 178.6,215.9 180.4,211.1 182.3,208.5 184.2,206.3 186.0,202.2 187.9,209.1 189.8,217.7 191.6,224.8 193.5,220.0 195.4,218.4 197.2,215.9 199.1,214.3 201.0,209.7 202.8,208.8 204.7,205.2 206.6,200.1 208.4,196.5 210.3,191.9 212.2,189.9 214.0,194.5 215.9,191.4 217.8,186.6 219.6,181.5 221.5,190.9 223.4,186.0 225.2,181.0 227.1,176.4 228.9,172.8 230.8,171.0 232.7,176.6 234.5,184.2 236.4,180.0 238.3,176.9 240.1,174.1 242.0,169.6 243.9,166.2 245.7,163.1 247.6,158.6 249.5,156.3 251.3,154.9 253.2,151.5 255.1,151.4 256.9,154.7 258.8,156.6 260.7,154.2 262.5,153.4 264.4,150.0 266.3,152.1 268.1,151.4 270.0,149.9 271.9,149.0 273.7,148.1 275.6,147.4 277.4,145.5 279.3,153.5 281.2,152.3 283.0,152.1 284.9,151.4 286.8,150.9 288.6,149.9 290.5,148.3 292.4,146.6 294.2,146.2 296.1,144.9 298.0,144.1 299.8,146.0 301.7,145.7 303.6,152.3 305.4,156.2 307.3,162.2 309.2,161.5 311.0,164.8 312.9,158.8 314.8,158.0 316.6,157.2 318.5,156.2 320.4,155.2 322.2,154.5 324.1,153.6 325.9,152.9 327.8,152.1 329.7,149.3 331.5,153.9 333.4,158.8 335.3,157.6 337.1,160.6 339.0,163.3 340.9,167.8 342.7,167.6 344.6,166.1 346.5,165.5 348.3,176.1 350.2,174.3 352.1,172.7 353.9,166.1 355.8,166.8 357.7,170.1 359.5,168.9 361.4,167.4 363.3,170.7 365.1,174.3 367.0,175.0 368.9,174.0 370.7,172.0 372.6,170.4 374.5,168.8 376.3,167.1 378.2,167.0 380.0,166.4 381.9,164.6 383.8,165.2 385.6,164.8 387.5,169.0 389.4,168.1 391.2,166.1 393.1,165.8 395.0,163.4 396.8,162.5 398.7,158.4 400.6,160.9 402.4,171.8 404.3,169.4 406.2,166.3 408.0,164.3 409.9,163.9 411.8,164.6 413.6,163.2 415.5,173.2 417.4,174.1 419.2,174.7 421.1,175.3 423.0,172.9 424.8,173.8 426.7,173.0 428.5,171.2 430.4,170.7 432.3,168.5 434.1,167.2 436.0,172.8 437.9,171.3 439.7,176.6 441.6,174.8 443.5,173.1 445.3,171.0 447.2,170.5 449.1,172.5 450.9,171.5 452.8,167.8 454.7,166.3 456.5,165.6 458.4,166.4 460.3,165.1 462.1,163.0 464.0,159.5 465.9,151.9 467.7,153.5 469.6,150.4 471.5,152.5 473.3,153.0 475.2,156.3 477.0,157.9 478.9,158.3 480.8,157.9 482.6,157.3 484.5,158.2 486.4,157.6 488.2,157.6 490.1,154.2 492.0,147.5 493.8,141.0 495.7,136.8 497.6,125.7 499.4,123.9 501.3,125.1 503.2,124.5 505.0,125.3 506.9,122.0 508.8,123.1 510.6,125.8 512.5,124.8 514.4,123.7 516.2,123.3 518.1,121.7 520.0,122.6 521.8,120.3 523.7,119.9 525.5,120.7 527.4,115.9 529.3,116.0 531.1,114.2 533.0,114.6 534.9,113.4 536.7,112.8 538.6,113.9 540.5,113.3 542.3,112.0 544.2,109.2 546.1,106.7 547.9,117.9 549.8,117.0 551.7,107.5 553.5,110.3 555.4,111.7 557.3,116.9 559.1,120.8 561.0,118.7 562.9,114.5 564.7,106.7 566.6,101.1 568.5,99.8 570.3,96.6 572.2,95.7 574.1,97.3 575.9,101.4 577.8,104.8 579.6,102.6 581.5,99.4 583.4,101.4 585.2,95.8 587.1,98.6 589.0,103.5 590.8,108.6 592.7,107.5 594.6,106.2 596.4,105.5 598.3,104.2 600.2,97.6 602.0,100.1 603.9,102.4 605.8,106.4 607.6,110.5 609.5,109.6 611.4,114.3 613.2,115.9 615.1,118.9 617.0,118.3 618.8,117.0 620.7,116.6 622.6,117.0 624.4,116.0 626.3,115.4 628.1,118.6 630.0,121.2 631.9,124.9 633.7,126.8 635.6,129.0 637.5,129.7 639.3,130.3 641.2,130.3 643.1,130.4 644.9,129.5 646.8,128.5 648.7,127.9 650.5,127.8 652.4,125.6 654.3,124.6 656.1,123.6 658.0,124.4 659.9,123.4 661.7,124.7 663.6,123.5 665.5,127.7 667.3,126.9 669.2,126.2 671.1,125.1 672.9,126.8 674.8,126.1 676.6,128.1 678.5,129.6 680.4,129.9 682.2,131.2 684.1,132.1 686.0,133.0 687.8,135.2 689.7,135.0 691.6,137.3 693.4,136.6 695.3,138.1 697.2,137.6 699.0,136.8 700.9,142.0 702.8,140.2 704.6,138.8 706.5,139.5 708.4,138.6 710.2,140.5 712.1,139.1 714.0,138.3 715.8,135.9 717.7,134.7 719.6,131.3 721.4,122.3 723.3,119.2 725.2,116.3 727.0,115.6 728.9,114.1 730.7,113.0 732.6,110.8 734.5,109.7 736.3,107.8 738.2,106.0 740.1,109.4 741.9,116.4 743.8,113.2 745.7,108.3 747.5,98.6 749.4,86.6 751.3,76.5 753.1,75.2 755.0,73.4 756.9,71.8 758.7,71.3 760.6,74.1 762.5,72.9 764.3,72.5 766.2,68.2 768.1,71.6 769.9,57.3 771.8,54.5 773.7,54.0 775.5,52.3 777.4,51.5 779.2,54.4 781.1,56.6 783.0,57.9 784.8,54.7 786.7,57.6 788.6,54.7 790.4,60.6 792.3,64.8 794.2,70.2 796.0,73.3 797.9,72.6 799.8,76.1 801.6,75.6 803.5,79.9 805.4,78.7 807.2,76.9 809.1,77.0 811.0,63.3 812.8,62.2 814.7,59.8 816.6,58.4 818.4,61.4 820.3,58.4 822.2,58.5 824.0,57.1 825.9,62.8 827.7,65.5 829.6,53.4 831.5,51.2 833.3,48.0 835.2,49.8 837.1,51.9 838.9,60.1 840.8,62.1 842.7,65.6 844.5,62.2 846.4,60.2 848.3,63.5 850.1,64.1 852.0,63.3"/>
  <polygon fill="rgba(34,197,94,0.12)" points="48,312 48.0,308.7 49.9,306.3 51.7,303.2 53.6,300.4 55.5,297.8 57.3,292.5 59.2,290.7 61.1,286.9 62.9,298.7 64.8,297.6 66.7,292.0 68.5,290.2 70.4,286.7 72.3,282.9 74.1,278.8 76.0,275.2 77.8,270.0 79.7,268.8 81.6,265.3 83.4,262.5 85.3,258.9 87.2,257.8 89.0,254.7 90.9,251.1 92.8,243.9 94.6,241.0 96.5,239.0 98.4,237.4 100.2,235.0 102.1,232.7 104.0,228.9 105.8,239.9 107.7,253.0 109.6,248.5 111.4,245.4 113.3,241.8 115.2,236.7 117.0,249.6 118.9,247.2 120.8,258.8 122.6,271.4 124.5,269.3 126.3,265.2 128.2,278.1 130.1,273.2 131.9,270.2 133.8,265.4 135.7,264.7 137.5,262.7 139.4,256.8 141.3,249.0 143.1,228.8 145.0,226.5 146.9,225.7 148.7,222.6 150.6,220.5 152.5,217.2 154.3,213.5 156.2,211.3 158.1,208.6 159.9,206.7 161.8,219.0 163.7,216.4 165.5,215.3 167.4,212.6 169.3,211.2 171.1,209.7 173.0,217.3 174.8,212.6 176.7,210.6 178.6,215.9 180.4,211.1 182.3,208.5 184.2,206.3 186.0,202.2 187.9,209.1 189.8,217.7 191.6,224.8 193.5,220.0 195.4,218.4 197.2,215.9 199.1,214.3 201.0,209.7 202.8,208.8 204.7,205.2 206.6,200.1 208.4,196.5 210.3,191.9 212.2,189.9 214.0,194.5 215.9,191.4 217.8,186.6 219.6,181.5 221.5,190.9 223.4,186.0 225.2,181.0 227.1,176.4 228.9,172.8 230.8,171.0 232.7,176.6 234.5,184.2 236.4,180.0 238.3,176.9 240.1,174.1 242.0,169.6 243.9,166.2 245.7,163.1 247.6,158.6 249.5,156.3 251.3,154.9 253.2,151.5 255.1,151.4 256.9,154.7 258.8,156.6 260.7,154.2 262.5,153.4 264.4,150.0 266.3,152.1 268.1,151.4 270.0,149.9 271.9,149.0 273.7,148.1 275.6,147.4 277.4,145.5 279.3,153.5 281.2,152.3 283.0,152.1 284.9,151.4 286.8,150.9 288.6,149.9 290.5,148.3 292.4,146.6 294.2,146.2 296.1,144.9 298.0,144.1 299.8,146.0 301.7,145.7 303.6,152.3 305.4,156.2 307.3,162.2 309.2,161.5 311.0,164.8 312.9,158.8 314.8,158.0 316.6,157.2 318.5,156.2 320.4,155.2 322.2,154.5 324.1,153.6 325.9,152.9 327.8,152.1 329.7,149.3 331.5,153.9 333.4,158.8 335.3,157.6 337.1,160.6 339.0,163.3 340.9,167.8 342.7,167.6 344.6,166.1 346.5,165.5 348.3,176.1 350.2,174.3 352.1,172.7 353.9,166.1 355.8,166.8 357.7,170.1 359.5,168.9 361.4,167.4 363.3,170.7 365.1,174.3 367.0,175.0 368.9,174.0 370.7,172.0 372.6,170.4 374.5,168.8 376.3,167.1 378.2,167.0 380.0,166.4 381.9,164.6 383.8,165.2 385.6,164.8 387.5,169.0 389.4,168.1 391.2,166.1 393.1,165.8 395.0,163.4 396.8,162.5 398.7,158.4 400.6,160.9 402.4,171.8 404.3,169.4 406.2,166.3 408.0,164.3 409.9,163.9 411.8,164.6 413.6,163.2 415.5,173.2 417.4,174.1 419.2,174.7 421.1,175.3 423.0,172.9 424.8,173.8 426.7,173.0 428.5,171.2 430.4,170.7 432.3,168.5 434.1,167.2 436.0,172.8 437.9,171.3 439.7,176.6 441.6,174.8 443.5,173.1 445.3,171.0 447.2,170.5 449.1,172.5 450.9,171.5 452.8,167.8 454.7,166.3 456.5,165.6 458.4,166.4 460.3,165.1 462.1,163.0 464.0,159.5 465.9,151.9 467.7,153.5 469.6,150.4 471.5,152.5 473.3,153.0 475.2,156.3 477.0,157.9 478.9,158.3 480.8,157.9 482.6,157.3 484.5,158.2 486.4,157.6 488.2,157.6 490.1,154.2 492.0,147.5 493.8,141.0 495.7,136.8 497.6,125.7 499.4,123.9 501.3,125.1 503.2,124.5 505.0,125.3 506.9,122.0 508.8,123.1 510.6,125.8 512.5,124.8 514.4,123.7 516.2,123.3 518.1,121.7 520.0,122.6 521.8,120.3 523.7,119.9 525.5,120.7 527.4,115.9 529.3,116.0 531.1,114.2 533.0,114.6 534.9,113.4 536.7,112.8 538.6,113.9 540.5,113.3 542.3,112.0 544.2,109.2 546.1,106.7 547.9,117.9 549.8,117.0 551.7,107.5 553.5,110.3 555.4,111.7 557.3,116.9 559.1,120.8 561.0,118.7 562.9,114.5 564.7,106.7 566.6,101.1 568.5,99.8 570.3,96.6 572.2,95.7 574.1,97.3 575.9,101.4 577.8,104.8 579.6,102.6 581.5,99.4 583.4,101.4 585.2,95.8 587.1,98.6 589.0,103.5 590.8,108.6 592.7,107.5 594.6,106.2 596.4,105.5 598.3,104.2 600.2,97.6 602.0,100.1 603.9,102.4 605.8,106.4 607.6,110.5 609.5,109.6 611.4,114.3 613.2,115.9 615.1,118.9 617.0,118.3 618.8,117.0 620.7,116.6 622.6,117.0 624.4,116.0 626.3,115.4 628.1,118.6 630.0,121.2 631.9,124.9 633.7,126.8 635.6,129.0 637.5,129.7 639.3,130.3 641.2,130.3 643.1,130.4 644.9,129.5 646.8,128.5 648.7,127.9 650.5,127.8 652.4,125.6 654.3,124.6 656.1,123.6 658.0,124.4 659.9,123.4 661.7,124.7 663.6,123.5 665.5,127.7 667.3,126.9 669.2,126.2 671.1,125.1 672.9,126.8 674.8,126.1 676.6,128.1 678.5,129.6 680.4,129.9 682.2,131.2 684.1,132.1 686.0,133.0 687.8,135.2 689.7,135.0 691.6,137.3 693.4,136.6 695.3,138.1 697.2,137.6 699.0,136.8 700.9,142.0 702.8,140.2 704.6,138.8 706.5,139.5 708.4,138.6 710.2,140.5 712.1,139.1 714.0,138.3 715.8,135.9 717.7,134.7 719.6,131.3 721.4,122.3 723.3,119.2 725.2,116.3 727.0,115.6 728.9,114.1 730.7,113.0 732.6,110.8 734.5,109.7 736.3,107.8 738.2,106.0 740.1,109.4 741.9,116.4 743.8,113.2 745.7,108.3 747.5,98.6 749.4,86.6 751.3,76.5 753.1,75.2 755.0,73.4 756.9,71.8 758.7,71.3 760.6,74.1 762.5,72.9 764.3,72.5 766.2,68.2 768.1,71.6 769.9,57.3 771.8,54.5 773.7,54.0 775.5,52.3 777.4,51.5 779.2,54.4 781.1,56.6 783.0,57.9 784.8,54.7 786.7,57.6 788.6,54.7 790.4,60.6 792.3,64.8 794.2,70.2 796.0,73.3 797.9,72.6 799.8,76.1 801.6,75.6 803.5,79.9 805.4,78.7 807.2,76.9 809.1,77.0 811.0,63.3 812.8,62.2 814.7,59.8 816.6,58.4 818.4,61.4 820.3,58.4 822.2,58.5 824.0,57.1 825.9,62.8 827.7,65.5 829.6,53.4 831.5,51.2 833.3,48.0 835.2,49.8 837.1,51.9 838.9,60.1 840.8,62.1 842.7,65.6 844.5,62.2 846.4,60.2 848.3,63.5 850.1,64.1 852.0,63.3 852,312"/>
</svg>