<svg xmlns="http://www.w3.org/2000/svg" width="900" height="360" viewBox="0 0 900 360">
  <rect width="100%" height="100%" fill="#0b1220"/>
  <text x="48" y="28" fill="#e2e8f0" font-size="18" font-family="Inter,sans-serif" font-weight="700">Cumulative PnL — 432 trades</text>
  <text x="852" y="28" fill="#22c55e" font-size="16" font-family="Inter,sans-serif" text-anchor="end" font-weight="700">+$105.45</text>
  <line x1="48" y1="312.0" x2="852" y2="312.0" stroke="#334155"/>
  <polyline fill="none" stroke="#22c55e" stroke-width="2.5" points="48.0,309.6 49.9,305.0 51.7,300.7 53.6,296.8 55.5,293.5 57.3,290.8 59.2,288.8 61.1,287.3 62.9,286.2 64.8,285.2 66.7,284.3 68.5,283.1 70.4,281.5 72.3,279.4 74.1,276.8 76.0,273.8 77.8,270.5 79.7,267.0 81.6,263.7 83.4,260.6 85.3,258.1 87.2,256.1 89.0,254.8 90.9,254.1 92.8,253.9 94.6,254.1 96.5,254.3 98.4,254.5 100.2,254.5 102.1,253.9 104.0,252.8 105.8,251.2 107.7,249.0 109.6,246.5 111.4,243.8 113.3,241.0 115.2,238.4 117.0,236.2 118.9,234.5 120.8,233.2 122.6,232.5 124.5,232.1 126.3,232.0 128.2,231.9 130.1,231.6 131.9,231.0 133.8,229.9 135.7,228.2 137.5,225.9 139.4,223.1 141.3,219.9 143.1,216.5 145.0,213.0 146.9,209.8 148.7,206.9 150.6,204.5 152.5,202.7 154.3,201.4 156.2,200.5 158.1,199.9 159.9,199.4 161.8,198.8 163.7,198.0 165.5,196.8 167.4,195.1 169.3,192.9 171.1,190.4 173.0,187.5 174.8,184.6 176.7,181.8 178.6,179.2 180.4,177.1 182.3,175.5 184.2,174.5 186.0,174.1 187.9,174.2 189.8,174.5 191.6,175.0 193.5,175.5 195.4,175.7 197.2,175.5 199.1,174.9 201.0,173.9 202.8,172.4 204.7,170.6 206.6,168.6 208.4,166.8 210.3,165.1 212.2,163.7 214.0,162.8 215.9,162.5 217.8,162.5 219.6,162.9 221.5,163.5 223.4,164.2 225.2,164.7 227.1,164.9 228.9,164.6 230.8,163.8 232.7,162.5 234.5,160.6 236.4,158.5 238.3,156.1 240.1,153.7 242.0,151.5 243.9,149.6 245.7,148.0 247.6,146.9 249.5,146.3 251.3,145.9 253.2,145.8 255.1,145.7 256.9,145.5 258.8,145.1 260.7,144.2 262.5,142.9 264.4,141.1 266.3,139.0 268.1,136.6 270.0,134.0 271.9,131.6 273.7,129.4 275.6,127.5 277.4,126.1 279.3,125.3 281.2,124.9 283.0,124.9 284.9,125.3 286.8,125.7 288.6,126.1 290.5,126.2 292.4,126.1 294.2,125.5 296.1,124.6 298.0,123.4 299.8,121.9 301.7,120.3 303.6,118.8 305.4,117.6 307.3,116.6 309.2,116.1 311.0,116.1 312.9,116.5 314.8,117.2 316.6,118.2 318.5,119.1 320.4,120.0 322.2,120.6 324.1,120.8 325.9,120.6 327.8,119.9 329.7,118.8 331.5,117.4 333.4,115.8 335.3,114.3 337.1,112.9 339.0,111.7 340.9,110.9 342.7,110.5 344.6,110.4 346.5,110.6 348.3,110.9 350.2,111.2 352.1,111.4 353.9,111.3 355.8,110.9 357.7,110.0 359.5,108.7 361.4,107.0 363.3,105.1 365.1,103.0 367.0,101.0 368.9,99.2 370.7,97.6 372.6,96.5 374.5,95.8 376.3,95.4 378.2,95.4 380.0,95.6 381.9,95.9 383.8,96.1 385.6,96.2 387.5,95.9 389.4,95.3 391.2,94.4 393.1,93.2 395.0,91.8 396.8,90.4 398.7,89.0 400.6,87.9 402.4,87.1 404.3,86.6 406.2,86.6 408.0,87.0 409.9,87.7 411.8,88.6 413.6,89.6 415.5,90.5 417.4,91.1 419.2,91.5 421.1,91.5 423.0,91.1 424.8,90.4 426.7,89.5 428.5,88.5 430.4,87.5 432.3,86.6 434.1,86.0 436.0,85.7 437.9,85.7 439.7,86.1 441.6,86.6 443.5,87.3 445.3,87.9 447.2,88.4 449.1,88.7 450.9,88.6 452.8,88.2 454.7,87.3 456.5,86.2 458.4,84.8 460.3,83.3 462.1,81.8 464.0,80.4 465.9,79.3 467.7,78.4 469.6,77.9 471.5,77.7 473.3,77.8 475.2,78.0 477.0,78.2 478.9,78.4 480.8,78.3 482.6,78.0 484.5,77.4 486.4,76.5 488.2,75.4 490.1,74.1 492.0,72.7 493.8,71.5 495.7,70.4 497.6,69.6 499.4,69.1 501.3,69.0 503.2,69.2 505.0,69.7 506.9,70.4 508.8,71.1 510.6,71.8 512.5,72.3 514.4,72.5 516.2,72.5 518.1,72.2 520.0,71.7 521.8,71.0 523.7,70.2 525.5,69.5 527.4,69.0 529.3,68.6 531.1,68.6 533.0,68.8 534.9,69.3 536.7,70.0 538.6,70.8 540.5,71.6 542.3,72.3 544.2,72.7 546.1,72.9 547.9,72.8 549.8,72.3 551.7,71.6 553.5,70.7 555.4,69.7 557.3,68.7 559.1,67.9 561.0,67.2 562.9,66.7 564.7,66.5 566.6,66.5 568.5,66.7 570.3,66.9 572.2,67.2 574.1,67.4 575.9,67.4 577.8,67.2 579.6,66.7 581.5,65.9 583.4,64.9 585.2,63.8 587.1,62.7 589.0,61.5 590.8,60.6 592.7,59.8 594.6,59.4 596.4,59.2 598.3,59.2 600.2,59.5 602.0,59.9 603.9,60.4 605.8,60.8 607.6,61.0 609.5,61.1 611.4,61.0 613.2,60.6 615.1,60.1 617.0,59.5 618.8,58.8 620.7,58.2 622.6,57.8 624.4,57.5 626.3,57.5 628.1,57.7 630.0,58.2 631.9,58.8 633.7,59.5 635.6,60.2 637.5,60.9 639.3,61.4 641.2,61.7 643.1,61.7 644.9,61.5 646.8,61.1 648.7,60.6 650.5,60.0 652.4,59.4 654.3,58.9 656.1,58.5 658.0,58.4 659.9,58.4 661.7,58.6 663.6,58.9 665.5,59.2 667.3,59.6 669.2,59.9 671.1,60.0 672.9,59.9 674.8,59.5 676.6,59.0 678.5,58.3 680.4,57.5 682.2,56.6 684.1,55.8 686.0,55.0 687.8,54.4 689.7,54.0 691.6,53.9 693.4,53.9 695.3,54.0 697.2,54.2 699.0,54.5 700.9,54.7 702.8,54.7 704.6,54.7 706.5,54.5 708.4,54.1 710.2,53.6 712.1,53.0 714.0,52.4 715.8,51.9 717.7,51.4 719.6,51.2 721.4,51.1 723.3,51.2 725.2,51.5 727.0,52.0 728.9,52.5 730.7,53.0 732.6,53.4 734.5,53.8 736.3,54.0 738.2,54.1 740.1,54.0 741.9,53.7 743.8,53.4 745.7,53.0 747.5,52.7 749.4,52.4 751.3,52.3 753.1,52.3 755.0,52.4 756.9,52.7 758.7,53.0 760.6,53.4 762.5,53.8 764.3,54.1 766.2,54.2 768.1,54.3 769.9,54.1 771.8,53.8 773.7,53.4 775.5,52.9 777.4,52.3 779.2,51.8 781.1,51.4 783.0,51.0 784.8,50.8 786.7,50.7 788.6,50.7 790.4,50.8 792.3,50.9 794.2,51.0 796.0,51.1 797.9,51.1 799.8,51.0 801.6,50.8 803.5,50.5 805.4,50.1 807.2,49.6 809.1,49.1 811.0,48.7 812.8,48.4 814.7,48.1 816.6,48.0 818.4,48.0 820.3,48.1 822.2,48.4 824.0,48.6 825.9,48.9 827.7,49.1 829.6,49.3 831.5,49.4 833.3,49.4 835.2,49.3 837.1,49.1 838.9,48.9 840.8,48.7 842.7,48.5 844.5,48.3 846.4,48.3 848.3,48.3 850.1,48.4 852.0,48.8"/>
  <polygon fill="rgba(34,197,94,0.12)" points="48,312 48.0,309.6 49.9,305.0 51.7,300.7 53.6,296.8 55.5,293.5 57.3,290.8 59.2,288.8 61.1,287.3 62.9,286.2 64.8,285.2 66.7,284.3 68.5,283.1 70.4,281.5 72.3,279.4 74.1,276.8 76.0,273.8 77.8,270.5 79.7,267.0 81.6,263.7 83.4,260.6 85.3,258.1 87.2,256.1 89.0,254.8 90.9,254.1 92.8,253.9 94.6,254.1 96.5,254.3 98.4,254.5 100.2,254.5 102.1,253.9 104.0,252.8 105.8,251.2 107.7,249.0 109.6,246.5 111.4,243.8 113.3,241.0 115.2,238.4 117.0,236.2 118.9,234.5 120.8,233.2 122.6,232.5 124.5,232.1 126.3,232.0 128.2,231.9 130.1,231.6 131.9,231.0 133.8,229.9 135.7,228.2 137.5,225.9 139.4,223.1 141.3,219.9 143.1,216.5 145.0,213.0 146.9,209.8 148.7,206.9 150.6,204.5 152.5,202.7 154.3,201.4 156.2,200.5 158.1,199.9 159.9,199.4 161.8,198.8 163.7,198.0 165.5,196.8 167.4,195.1 169.3,192.9 171.1,190.4 173.0,187.5 174.8,184.6 176.7,181.8 178.6,179.2 180.4,177.1 182.3,175.5 184.2,174.5 186.0,174.1 187.9,174.2 189.8,174.5 191.6,175.0 193.5,175.5 195.4,175.7 197.2,175.5 199.1,174.9 201.0,173.9 202.8,172.4 204.7,170.6 206.6,168.6 208.4,166.8 210.3,165.1 212.2,163.7 214.0,162.8 215.9,162.5 217.8,162.5 219.6,162.9 221.5,163.5 223.4,164.2 225.2,164.7 227.1,164.9 228.9,164.6 230.8,163.8 232.7,162.5 234.5,160.6 236.4,158.5 238.3,156.1 240.1,153.7 242.0,151.5 243.9,149.6 245.7,148.0 247.6,146.9 249.5,146.3 251.3,145.9 253.2,145.8 255.1,145.7 256.9,145.5 258.8,145.1 260.7,144.2 262.5,142.9 264.4,141.1 266.3,139.0 268.1,136.6 270.0,134.0 271.9,131.6 273.7,129.4 275.6,127.5 277.4,126.1 279.3,125.3 281.2,124.9 283.0,124.9 284.9,125.3 286.8,125.7 288.6,126.1 290.5,126.2 292.4,126.1 294.2,125.5 296.1,124.6 298.0,123.4 299.8,121.9 301.7,120.3 303.6,118.8 305.4,117.6 307.3,116.6 309.2,116.1 311.0,116.1 312.9,116.5 314.8,117.2 316.6,118.2 318.5,119.1 320.4,120.0 322.2,120.6 324.1,120.8 325.9,120.6 327.8,119.9 329.7,118.8 331.5,117.4 333.4,115.8 335.3,114.3 337.1,112.9 339.0,111.7 340.9,110.9 342.7,110.5 344.6,110.4 346.5,110.6 348.3,110.9 350.2,111.2 352.1,111.4 353.9,111.3 355.8,110.9 357.7,110.0 359.5,108.7 361.4,107.0 363.3,105.1 365.1,103.0 367.0,101.0 368.9,99.2 370.7,97.6 372.6,96.5 374.5,95.8 376.3,95.4 378.2,95.4 380.0,95.6 381.9,95.9 383.8,96.1 385.6,96.2 387.5,95.9 389.4,95.3 391.2,94.4 393.1,93.2 395.0,91.8 396.8,90.4 398.7,89.0 400.6,87.9 402.4,87.1 404.3,86.6 406.2,86.6 408.0,87.0 409.9,87.7 411.8,88.6 413.6,89.6 415.5,90.5 417.4,91.1 419.2,91.5 421.1,91.5 423.0,91.1 424.8,90.4 426.7,89.5 428.5,88.5 430.4,87.5 432.3,86.6 434.1,86.0 436.0,85.7 437.9,85.7 439.7,86.1 441.6,86.6 443.5,87.3 445.3,87.9 447.2,88.4 449.1,88.7 450.9,88.6 452.8,88.2 454.7,87.3 456.5,86.2 458.4,84.8 460.3,83.3 462.1,81.8 464.0,80.4 465.9,79.3 467.7,78.4 469.6,77.9 471.5,77.7 473.3,77.8 475.2,78.0 477.0,78.2 478.9,78.4 480.8,78.3 482.6,78.0 484.5,77.4 486.4,76.5 488.2,75.4 490.1,74.1 492.0,72.7 493.8,71.5 495.7,70.4 497.6,69.6 499.4,69.1 501.3,69.0 503.2,69.2 505.0,69.7 506.9,70.4 508.8,71.1 510.6,71.8 512.5,72.3 514.4,72.5 516.2,72.5 518.1,72.2 520.0,71.7 521.8,71.0 523.7,70.2 525.5,69.5 527.4,69.0 529.3,68.6 531.1,68.6 533.0,68.8 534.9,69.3 536.7,70.0 538.6,70.8 540.5,71.6 542.3,72.3 544.2,72.7 546.1,72.9 547.9,72.8 549.8,72.3 551.7,71.6 553.5,70.7 555.4,69.7 557.3,68.7 559.1,67.9 561.0,67.2 562.9,66.7 564.7,66.5 566.6,66.5 568.5,66.7 570.3,66.9 572.2,67.2 574.1,67.4 575.9,67.4 577.8,67.2 579.6,66.7 581.5,65.9 583.4,64.9 585.2,63.8 587.1,62.7 589.0,61.5 590.8,60.6 592.7,59.8 594.6,59.4 596.4,59.2 598.3,59.2 600.2,59.5 602.0,59.9 603.9,60.4 605.8,60.8 607.6,61.0 609.5,61.1 611.4,61.0 613.2,60.6 615.1,60.1 617.0,59.5 618.8,58.8 620.7,58.2 622.6,57.8 624.4,57.5 626.3,57.5 628.1,57.7 630.0,58.2 631.9,58.8 633.7,59.5 635.6,60.2 637.5,60.9 639.3,61.4 641.2,61.7 643.1,61.7 644.9,61.5 646.8,61.1 648.7,60.6 650.5,60.0 652.4,59.4 654.3,58.9 656.1,58.5 658.0,58.4 659.9,58.4 661.7,58.6 663.6,58.9 665.5,59.2 667.3,59.6 669.2,59.9 671.1,60.0 672.9,59.9 674.8,59.5 676.6,59.0 678.5,58.3 680.4,57.5 682.2,56.6 684.1,55.8 686.0,55.0 687.8,54.4 689.7,54.0 691.6,53.9 693.4,53.9 695.3,54.0 697.2,54.2 699.0,54.5 700.9,54.7 702.8,54.7 704.6,54.7 706.5,54.5 708.4,54.1 710.2,53.6 712.1,53.0 714.0,52.4 715.8,51.9 717.7,51.4 719.6,51.2 721.4,51.1 723.3,51.2 725.2,51.5 727.0,52.0 728.9,52.5 730.7,53.0 732.6,53.4 734.5,53.8 736.3,54.0 738.2,54.1 740.1,54.0 741.9,53.7 743.8,53.4 745.7,53.0 747.5,52.7 749.4,52.4 751.3,52.3 753.1,52.3 755.0,52.4 756.9,52.7 758.7,53.0 760.6,53.4 762.5,53.8 764.3,54.1 766.2,54.2 768.1,54.3 769.9,54.1 771.8,53.8 773.7,53.4 775.5,52.9 777.4,52.3 779.2,51.8 781.1,51.4 783.0,51.0 784.8,50.8 786.7,50.7 788.6,50.7 790.4,50.8 792.3,50.9 794.2,51.0 796.0,51.1 797.9,51.1 799.8,51.0 801.6,50.8 803.5,50.5 805.4,50.1 807.2,49.6 809.1,49.1 811.0,48.7 812.8,48.4 814.7,48.1 816.6,48.0 818.4,48.0 820.3,48.1 822.2,48.4 824.0,48.6 825.9,48.9 827.7,49.1 829.6,49.3 831.5,49.4 833.3,49.4 835.2,49.3 837.1,49.1 838.9,48.9 840.8,48.7 842.7,48.5 844.5,48.3 846.4,48.3 848.3,48.3 850.1,48.4 852.0,48.8 852,312"/>
</svg>