<svg xmlns="http://www.w3.org/2000/svg" width="900" height="360" viewBox="0 0 900 360">
  <rect width="100%" height="100%" fill="#000000"/>
  <text x="48" y="28" fill="#ffffff" font-size="18" font-family="Inter,sans-serif" font-weight="700">Cumulative PnL — 1632 trades</text>
  <text x="852" y="28" fill="#34d59a" font-size="16" font-family="Inter,sans-serif" text-anchor="end" font-weight="700">+$533.14</text>
  <line x1="48" y1="312.0" x2="852" y2="312.0" stroke="#303236"/>
  <polyline fill="none" stroke="#34d59a" stroke-width="2.5" points="48.0,311.4 48.5,310.3 49.0,309.3 49.5,308.3 50.0,307.5 50.5,306.8 51.0,306.2 51.5,305.7 51.9,305.3 52.4,305.0 52.9,304.6 53.4,304.2 53.9,303.7 54.4,303.1 54.9,302.3 55.4,301.5 55.9,300.7 56.4,299.8 56.9,298.9 57.4,298.1 57.9,297.4 58.4,296.8 58.8,296.3 59.3,296.0 59.8,295.7 60.3,295.5 60.8,295.4 61.3,295.2 61.8,295.0 62.3,294.7 62.8,294.3 63.3,293.7 63.8,293.0 64.3,292.3 64.8,291.5 65.3,290.7 65.7,290.0 66.2,289.3 66.7,288.7 67.2,288.2 67.7,287.8 68.2,287.5 68.7,287.3 69.2,287.1 69.7,286.8 70.2,286.4 70.7,285.9 71.2,285.4 71.7,284.6 72.2,283.8 72.6,282.9 73.1,281.9 73.6,281.0 74.1,280.0 74.6,279.2 75.1,278.4 75.6,277.8 76.1,277.2 76.6,276.8 77.1,276.4 77.6,276.1 78.1,275.7 78.6,275.3 79.1,274.8 79.5,274.2 80.0,273.4 80.5,272.6 81.0,271.7 81.5,270.8 82.0,270.0 82.5,269.1 83.0,268.4 83.5,267.8 84.0,267.3 84.5,267.0 85.0,266.7 85.5,266.6 86.0,266.4 86.5,266.3 86.9,266.1 87.4,265.8 87.9,265.4 88.4,264.9 88.9,264.3 89.4,263.6 89.9,262.9 90.4,262.2 90.9,261.6 91.4,261.0 91.9,260.5 92.4,260.2 92.9,259.9 93.4,259.8 93.8,259.6 94.3,259.5 94.8,259.4 95.3,259.1 95.8,258.8 96.3,258.4 96.8,257.8 97.3,257.1 97.8,256.3 98.3,255.5 98.8,254.7 99.3,253.9 99.8,253.2 100.3,252.5 100.7,252.0 101.2,251.6 101.7,251.2 102.2,250.9 102.7,250.6 103.2,250.3 103.7,249.9 104.2,249.4 104.7,248.8 105.2,248.1 105.7,247.4 106.2,246.5 106.7,245.6 107.2,244.7 107.6,243.9 108.1,243.2 108.6,242.6 109.1,242.1 109.6,241.7 110.1,241.4 110.6,241.2 111.1,241.1 111.6,240.9 112.1,240.6 112.6,240.3 113.1,239.9 113.6,239.4 114.1,238.8 114.5,238.2 115.0,237.5 115.5,236.8 116.0,236.2 116.5,235.7 117.0,235.3 117.5,235.0 118.0,234.8 118.5,234.7 119.0,234.7 119.5,234.7 120.0,234.6 120.5,234.5 121.0,234.3 121.4,233.9 121.9,233.5 122.4,232.9 122.9,232.3 123.4,231.6 123.9,230.9 124.4,230.3 124.9,229.7 125.4,229.2 125.9,228.8 126.4,228.5 126.9,228.3 127.4,228.1 127.9,227.9 128.4,227.7 128.8,227.4 129.3,227.0 129.8,226.4 130.3,225.8 130.8,225.1 131.3,224.3 131.8,223.5 132.3,222.6 132.8,221.8 133.3,221.1 133.8,220.5 134.3,220.1 134.8,219.7 135.3,219.4 135.7,219.2 136.2,219.0 136.7,218.8 137.2,218.5 137.7,218.2 138.2,217.7 138.7,217.2 139.2,216.5 139.7,215.9 140.2,215.2 140.7,214.5 141.2,213.9 141.7,213.4 142.2,213.0 142.6,212.7 143.1,212.6 143.6,212.5 144.1,212.5 144.6,212.5 145.1,212.4 145.6,212.4 146.1,212.2 146.6,211.9 147.1,211.5 147.6,211.1 148.1,210.5 148.6,209.9 149.1,209.4 149.5,208.8 150.0,208.4 150.5,208.0 151.0,207.8 151.5,207.6 152.0,207.5 152.5,207.4 153.0,207.3 153.5,207.2 154.0,207.0 154.5,206.7 155.0,206.3 155.5,205.8 156.0,205.2 156.4,204.5 156.9,203.7 157.4,203.0 157.9,202.3 158.4,201.7 158.9,201.2 159.4,200.7 159.9,200.4 160.4,200.2 160.9,199.9 161.4,199.8 161.9,199.5 162.4,199.2 162.9,198.9 163.4,198.4 163.8,197.9 164.3,197.2 164.8,196.5 165.3,195.8 165.8,195.1 166.3,194.5 166.8,194.0 167.3,193.6 167.8,193.3 168.3,193.1 168.8,193.0 169.3,192.9 169.8,192.9 170.3,192.8 170.7,192.8 171.2,192.6 171.7,192.3 172.2,192.0 172.7,191.5 173.2,191.0 173.7,190.5 174.2,190.0 174.7,189.5 175.2,189.1 175.7,188.9 176.2,188.7 176.7,188.6 177.2,188.6 177.6,188.6 178.1,188.6 178.6,188.6 179.1,188.5 179.6,188.4 180.1,188.1 180.6,187.7 181.1,187.2 181.6,186.6 182.1,186.0 182.6,185.3 183.1,184.8 183.6,184.2 184.1,183.8 184.5,183.5 185.0,183.2 185.5,183.1 186.0,182.9 186.5,182.8 187.0,182.6 187.5,182.3 188.0,182.0 188.5,181.6 189.0,181.0 189.5,180.4 190.0,179.7 190.5,179.0 191.0,178.3 191.4,177.7 191.9,177.2 192.4,176.7 192.9,176.4 193.4,176.2 193.9,176.0 194.4,175.9 194.9,175.9 195.4,175.8 195.9,175.7 196.4,175.4 196.9,175.1 197.4,174.8 197.9,174.3 198.3,173.8 198.8,173.3 199.3,172.8 199.8,172.3 200.3,172.0 200.8,171.7 201.3,171.6 201.8,171.5 202.3,171.6 202.8,171.6 203.3,171.7 203.8,171.8 204.3,171.8 204.8,171.6 205.3,171.4 205.7,171.1 206.2,170.7 206.7,170.2 207.2,169.7 207.7,169.2 208.2,168.8 208.7,168.4 209.2,168.1 209.7,167.9 210.2,167.7 210.7,167.6 211.2,167.6 211.7,167.5 212.2,167.4 212.6,167.3 213.1,167.0 213.6,166.6 214.1,166.1 214.6,165.6 215.1,164.9 215.6,164.3 216.1,163.6 216.6,163.0 217.1,162.5 217.6,162.1 218.1,161.8 218.6,161.5 219.1,161.4 219.5,161.3 220.0,161.2 220.5,161.1 221.0,160.9 221.5,160.6 222.0,160.3 222.5,159.9 223.0,159.4 223.5,158.8 224.0,158.3 224.5,157.8 225.0,157.3 225.5,156.9 226.0,156.7 226.4,156.5 226.9,156.5 227.4,156.5 227.9,156.6 228.4,156.6 228.9,156.7 229.4,156.7 229.9,156.6 230.4,156.4 230.9,156.2 231.4,155.8 231.9,155.4 232.4,155.0 232.9,154.6 233.3,154.2 233.8,153.9 234.3,153.7 234.8,153.6 235.3,153.5 235.8,153.5 236.3,153.6 236.8,153.6 237.3,153.6 237.8,153.5 238.3,153.4 238.8,153.1 239.3,152.7 239.8,152.2 240.3,151.7 240.7,151.1 241.2,150.5 241.7,150.0 242.2,149.6 242.7,149.2 243.2,148.9 243.7,148.7 244.2,148.6 244.7,148.5 245.2,148.4 245.7,148.3 246.2,148.1 246.7,147.8 247.2,147.5 247.6,147.0 248.1,146.5 248.6,145.9 249.1,145.4 249.6,144.8 250.1,144.4 250.6,144.0 251.1,143.7 251.6,143.5 252.1,143.4 252.6,143.4 253.1,143.4 253.6,143.4 254.1,143.4 254.5,143.4 255.0,143.3 255.5,143.1 256.0,142.8 256.5,142.5 257.0,142.1 257.5,141.7 258.0,141.4 258.5,141.0 259.0,140.8 259.5,140.6 260.0,140.6 260.5,140.6 261.0,140.7 261.4,140.8 261.9,140.9 262.4,140.9 262.9,140.9 263.4,140.9 263.9,140.7 264.4,140.4 264.9,140.0 265.4,139.6 265.9,139.1 266.4,138.6 266.9,138.2 267.4,137.9 267.9,137.6 268.3,137.4 268.8,137.3 269.3,137.2 269.8,137.1 270.3,137.1 270.8,137.0 271.3,136.9 271.8,136.6 272.3,136.3 272.8,135.9 273.3,135.3 273.8,134.8 274.3,134.2 274.8,133.7 275.2,133.2 275.7,132.8 276.2,132.5 276.7,132.3 277.2,132.1 277.7,132.1 278.2,132.1 278.7,132.0 279.2,132.0 279.7,131.9 280.2,131.8 280.7,131.6 281.2,131.3 281.7,130.9 282.2,130.5 282.6,130.1 283.1,129.7 283.6,129.4 284.1,129.1 284.6,129.0 285.1,128.9 285.6,129.0 286.1,129.1 286.6,129.2 287.1,129.3 287.6,129.4 288.1,129.5 288.6,129.4 289.1,129.3 289.5,129.1 290.0,128.8 290.5,128.4 291.0,128.0 291.5,127.7 292.0,127.4 292.5,127.1 293.0,126.9 293.5,126.8 294.0,126.8 294.5,126.8 295.0,126.8 295.5,126.9 296.0,126.8 296.4,126.7 296.9,126.6 297.4,126.3 297.9,125.9 298.4,125.5 298.9,125.0 299.4,124.5 299.9,124.0 300.4,123.5 300.9,123.1 301.4,122.8 301.9,122.6 302.4,122.5 302.9,122.4 303.3,122.3 303.8,122.3 304.3,122.2 304.8,122.1 305.3,121.9 305.8,121.7 306.3,121.3 306.8,120.9 307.3,120.5 307.8,120.0 308.3,119.6 308.8,119.3 309.3,119.0 309.8,118.8 310.2,118.7 310.7,118.8 311.2,118.8 311.7,118.9 312.2,119.1 312.7,119.2 313.2,119.2 313.7,119.2 314.2,119.0 314.7,118.8 315.2,118.6 315.7,118.3 316.2,117.9 316.7,117.6 317.2,117.4 317.6,117.2 318.1,117.1 318.6,117.1 319.1,117.1 319.6,117.2 320.1,117.3 320.6,117.4 321.1,117.5 321.6,117.4 322.1,117.3 322.6,117.1 323.1,116.8 323.6,116.5 324.1,116.1 324.5,115.6 325.0,115.2 325.5,114.8 326.0,114.5 326.5,114.2 327.0,114.1 327.5,114.0 328.0,113.9 328.5,113.9 329.0,113.9 329.5,113.8 330.0,113.7 330.5,113.5 331.0,113.2 331.4,112.8 331.9,112.4 332.4,111.9 332.9,111.5 333.4,111.0 333.9,110.7 334.4,110.4 334.9,110.2 335.4,110.0 335.9,110.0 336.4,110.0 336.9,110.1 337.4,110.2 337.9,110.2 338.3,110.2 338.8,110.1 339.3,110.0 339.8,109.8 340.3,109.5 340.8,109.2 341.3,108.9 341.8,108.6 342.3,108.4 342.8,108.2 343.3,108.2 343.8,108.2 344.3,108.3 344.8,108.4 345.2,108.5 345.7,108.7 346.2,108.8 346.7,108.8 347.2,108.8 347.7,108.7 348.2,108.5 348.7,108.2 349.2,107.8 349.7,107.5 350.2,107.1 350.7,106.8 351.2,106.6 351.7,106.4 352.1,106.3 352.6,106.3 353.1,106.3 353.6,106.3 354.1,106.3 354.6,106.3 355.1,106.2 355.6,106.0 356.1,105.8 356.6,105.4 357.1,105.0 357.6,104.6 358.1,104.1 358.6,103.7 359.1,103.3 359.5,103.0 360.0,102.8 360.5,102.6 361.0,102.6 361.5,102.6 362.0,102.6 362.5,102.6 363.0,102.6 363.5,102.5 364.0,102.4 364.5,102.2 365.0,102.0 365.5,101.7 366.0,101.4 366.4,101.0 366.9,100.7 367.4,100.5 367.9,100.3 368.4,100.2 368.9,100.2 369.4,100.3 369.9,100.5 370.4,100.6 370.9,100.8 371.4,100.9 371.9,101.0 372.4,100.9 372.9,100.9 373.3,100.7 373.8,100.5 374.3,100.2 374.8,99.9 375.3,99.7 375.8,99.4 376.3,99.3 376.8,99.2 377.3,99.2 377.8,99.2 378.3,99.3 378.8,99.4 379.3,99.4 379.8,99.4 380.2,99.4 380.7,99.3 381.2,99.1 381.7,98.8 382.2,98.4 382.7,98.0 383.2,97.6 383.7,97.2 384.2,96.9 384.7,96.6 385.2,96.4 385.7,96.3 386.2,96.2 386.7,96.2 387.1,96.2 387.6,96.2 388.1,96.1 388.6,96.1 389.1,95.9 389.6,95.7 390.1,95.4 390.6,95.1 391.1,94.7 391.6,94.3 392.1,94.0 392.6,93.7 393.1,93.5 393.6,93.4 394.1,93.4 394.5,93.4 395.0,93.5 395.5,93.7 396.0,93.8 396.5,93.9 397.0,93.9 397.5,93.9 398.0,93.8 398.5,93.7 399.0,93.5 399.5,93.2 400.0,93.0 400.5,92.8 401.0,92.6 401.4,92.5 401.9,92.5 402.4,92.5 402.9,92.6 403.4,92.7 403.9,92.8 404.4,93.0 404.9,93.1 405.4,93.1 405.9,93.0 406.4,92.9 406.9,92.7 407.4,92.4 407.9,92.1 408.3,91.7 408.8,91.4 409.3,91.1 409.8,90.9 410.3,90.7 410.8,90.6 411.3,90.6 411.8,90.6 412.3,90.6 412.8,90.6 413.3,90.6 413.8,90.5 414.3,90.3 414.8,90.1 415.2,89.8 415.7,89.5 416.2,89.1 416.7,88.7 417.2,88.3 417.7,88.1 418.2,87.8 418.7,87.7 419.2,87.6 419.7,87.6 420.2,87.7 420.7,87.7 421.2,87.8 421.7,87.9 422.1,87.9 422.6,87.8 423.1,87.7 423.6,87.5 424.1,87.3 424.6,87.1 425.1,86.8 425.6,86.6 426.1,86.4 426.6,86.4 427.1,86.3 427.6,86.4 428.1,86.5 428.6,86.6 429.0,86.8 429.5,87.0 430.0,87.1 430.5,87.2 431.0,87.1 431.5,87.1 432.0,86.9 432.5,86.7 433.0,86.4 433.5,86.2 434.0,85.9 434.5,85.7 435.0,85.6 435.5,85.5 436.0,85.4 436.4,85.4 436.9,85.5 437.4,85.5 437.9,85.6 438.4,85.6 438.9,85.5 439.4,85.4 439.9,85.2 440.4,84.9 440.9,84.6 441.4,84.2 441.9,83.9 442.4,83.5 442.9,83.2 443.3,83.0 443.8,82.8 444.3,82.8 444.8,82.7 445.3,82.7 445.8,82.8 446.3,82.8 446.8,82.8 447.3,82.8 447.8,82.7 448.3,82.5 448.8,82.3 449.3,82.1 449.8,81.8 450.2,81.5 450.7,81.3 451.2,81.1 451.7,81.0 452.2,81.0 452.7,81.0 453.2,81.1 453.7,81.2 454.2,81.4 454.7,81.5 455.2,81.7 455.7,81.7 456.2,81.7 456.7,81.7 457.1,81.5 457.6,81.4 458.1,81.2 458.6,81.0 459.1,80.8 459.6,80.6 460.1,80.5 460.6,80.5 461.1,80.5 461.6,80.6 462.1,80.7 462.6,80.8 463.1,80.9 463.6,81.0 464.0,80.9 464.5,80.9 465.0,80.7 465.5,80.5 466.0,80.2 466.5,79.9 467.0,79.6 467.5,79.3 468.0,79.0 468.5,78.8 469.0,78.7 469.5,78.6 470.0,78.6 470.5,78.6 471.0,78.6 471.4,78.6 471.9,78.6 472.4,78.5 472.9,78.4 473.4,78.2 473.9,78.0 474.4,77.7 474.9,77.4 475.4,77.1 475.9,76.8 476.4,76.6 476.9,76.5 477.4,76.4 477.9,76.4 478.3,76.5 478.8,76.6 479.3,76.7 479.8,76.8 480.3,76.9 480.8,76.9 481.3,76.9 481.8,76.9 482.3,76.7 482.8,76.6 483.3,76.4 483.8,76.2 484.3,76.0 484.8,75.9 485.2,75.9 485.7,75.9 486.2,75.9 486.7,76.0 487.2,76.2 487.7,76.3 488.2,76.5 488.7,76.6 489.2,76.6 489.7,76.6 490.2,76.5 490.7,76.3 491.2,76.1 491.7,75.8 492.1,75.6 492.6,75.3 493.1,75.1 493.6,75.0 494.1,74.9 494.6,74.8 495.1,74.8 495.6,74.9 496.1,74.9 496.6,74.9 497.1,74.9 497.6,74.9 498.1,74.7 498.6,74.6 499.0,74.3 499.5,74.0 500.0,73.7 500.5,73.4 501.0,73.1 501.5,72.9 502.0,72.7 502.5,72.6 503.0,72.6 503.5,72.6 504.0,72.7 504.5,72.7 505.0,72.8 505.5,72.9 505.9,72.9 506.4,72.8 506.9,72.7 507.4,72.6 507.9,72.4 508.4,72.2 508.9,72.0 509.4,71.8 509.9,71.7 510.4,71.7 510.9,71.7 511.4,71.7 511.9,71.9 512.4,72.0 512.9,72.2 513.3,72.3 513.8,72.4 514.3,72.5 514.8,72.5 515.3,72.4 515.8,72.3 516.3,72.2 516.8,72.0 517.3,71.8 517.8,71.6 518.3,71.5 518.8,71.4 519.3,71.3 519.8,71.3 520.2,71.4 520.7,71.5 521.2,71.5 521.7,71.6 522.2,71.6 522.7,71.6 523.2,71.5 523.7,71.3 524.2,71.1 524.7,70.8 525.2,70.5 525.7,70.2 526.2,70.0 526.7,69.8 527.1,69.6 527.6,69.5 528.1,69.4 528.6,69.4 529.1,69.5 529.6,69.5 530.1,69.5 530.6,69.5 531.1,69.5 531.6,69.4 532.1,69.3 532.6,69.1 533.1,68.9 533.6,68.7 534.0,68.4 534.5,68.3 535.0,68.1 535.5,68.0 536.0,68.0 536.5,68.1 537.0,68.2 537.5,68.3 538.0,68.5 538.5,68.6 539.0,68.7 539.5,68.8 540.0,68.8 540.5,68.7 540.9,68.6 541.4,68.5 541.9,68.3 542.4,68.2 542.9,68.0 543.4,67.9 543.9,67.9 544.4,67.9 544.9,68.0 545.4,68.1 545.9,68.2 546.4,68.3 546.9,68.4 547.4,68.4 547.9,68.4 548.3,68.4 548.8,68.3 549.3,68.1 549.8,67.9 550.3,67.6 550.8,67.4 551.3,67.2 551.8,67.0 552.3,66.8 552.8,66.7 553.3,66.7 553.8,66.7 554.3,66.7 554.8,66.8 555.2,66.8 555.7,66.8 556.2,66.7 556.7,66.6 557.2,66.5 557.7,66.3 558.2,66.0 558.7,65.8 559.2,65.5 559.7,65.3 560.2,65.2 560.7,65.1 561.2,65.0 561.7,65.0 562.1,65.1 562.6,65.2 563.1,65.3 563.6,65.4 564.1,65.5 564.6,65.5 565.1,65.5 565.6,65.4 566.1,65.3 566.6,65.2 567.1,65.0 567.6,64.9 568.1,64.8 568.6,64.7 569.0,64.7 569.5,64.7 570.0,64.8 570.5,64.9 571.0,65.0 571.5,65.2 572.0,65.3 572.5,65.4 573.0,65.4 573.5,65.4 574.0,65.4 574.5,65.2 575.0,65.1 575.5,64.9 575.9,64.7 576.4,64.5 576.9,64.4 577.4,64.3 577.9,64.2 578.4,64.2 578.9,64.2 579.4,64.3 579.9,64.3 580.4,64.4 580.9,64.4 581.4,64.3 581.9,64.2 582.4,64.1 582.8,63.9 583.3,63.6 583.8,63.4 584.3,63.1 584.8,62.9 585.3,62.7 585.8,62.6 586.3,62.6 586.8,62.5 587.3,62.6 587.8,62.6 588.3,62.7 588.8,62.7 589.3,62.8 589.8,62.8 590.2,62.7 590.7,62.6 591.2,62.5 591.7,62.4 592.2,62.2 592.7,62.1 593.2,61.9 593.7,61.8 594.2,61.8 594.7,61.8 595.2,61.9 595.7,62.0 596.2,62.2 596.7,62.3 597.1,62.4 597.6,62.5 598.1,62.6 598.6,62.6 599.1,62.6 599.6,62.5 600.1,62.3 600.6,62.2 601.1,62.1 601.6,61.9 602.1,61.8 602.6,61.8 603.1,61.8 603.6,61.8 604.0,61.9 604.5,62.0 605.0,62.0 605.5,62.1 606.0,62.1 606.5,62.1 607.0,62.0 607.5,61.9 608.0,61.7 608.5,61.5 609.0,61.3 609.5,61.1 610.0,60.9 610.5,60.7 610.9,60.6 611.4,60.5 611.9,60.5 612.4,60.5 612.9,60.5 613.4,60.6 613.9,60.6 614.4,60.6 614.9,60.6 615.4,60.5 615.9,60.4 616.4,60.2 616.9,60.1 617.4,59.9 617.8,59.7 618.3,59.6 618.8,59.4 619.3,59.4 619.8,59.4 620.3,59.4 620.8,59.5 621.3,59.6 621.8,59.8 622.3,59.9 622.8,60.0 623.3,60.0 623.8,60.0 624.3,60.0 624.8,59.9 625.2,59.8 625.7,59.7 626.2,59.6 626.7,59.5 627.2,59.4 627.7,59.4 628.2,59.4 628.7,59.5 629.2,59.6 629.7,59.7 630.2,59.8 630.7,59.9 631.2,60.0 631.7,60.0 632.1,59.9 632.6,59.8 633.1,59.7 633.6,59.5 634.1,59.4 634.6,59.2 635.1,59.0 635.6,58.9 636.1,58.8 636.6,58.7 637.1,58.7 637.6,58.7 638.1,58.8 638.6,58.8 639.0,58.8 639.5,58.8 640.0,58.8 640.5,58.7 641.0,58.5 641.5,58.4 642.0,58.2 642.5,58.0 643.0,57.8 643.5,57.6 644.0,57.5 644.5,57.4 645.0,57.4 645.5,57.4 645.9,57.5 646.4,57.6 646.9,57.7 647.4,57.7 647.9,57.8 648.4,57.8 648.9,57.8 649.4,57.7 649.9,57.6 650.4,57.5 650.9,57.4 651.4,57.3 651.9,57.2 652.4,57.2 652.8,57.2 653.3,57.2 653.8,57.3 654.3,57.4 654.8,57.5 655.3,57.6 655.8,57.8 656.3,57.8 656.8,57.9 657.3,57.9 657.8,57.8 658.3,57.7 658.8,57.6 659.3,57.5 659.7,57.3 660.2,57.2 660.7,57.1 661.2,57.0 661.7,57.0 662.2,57.0 662.7,57.1 663.2,57.1 663.7,57.2 664.2,57.2 664.7,57.2 665.2,57.2 665.7,57.1 666.2,57.0 666.7,56.8 667.1,56.6 667.6,56.4 668.1,56.3 668.6,56.1 669.1,56.0 669.6,55.9 670.1,55.8 670.6,55.8 671.1,55.9 671.6,55.9 672.1,56.0 672.6,56.0 673.1,56.0 673.6,56.0 674.0,56.0 674.5,55.9 675.0,55.8 675.5,55.7 676.0,55.5 676.5,55.4 677.0,55.3 677.5,55.3 678.0,55.2 678.5,55.3 679.0,55.3 679.5,55.4 680.0,55.5 680.5,55.7 680.9,55.8 681.4,55.8 681.9,55.9 682.4,55.9 682.9,55.9 683.4,55.8 683.9,55.7 684.4,55.6 684.9,55.5 685.4,55.4 685.9,55.4 686.4,55.3 686.9,55.3 687.4,55.4 687.8,55.5 688.3,55.5 688.8,55.6 689.3,55.7 689.8,55.7 690.3,55.7 690.8,55.6 691.3,55.5 691.8,55.4 692.3,55.2 692.8,55.1 693.3,54.9 693.8,54.8 694.3,54.6 694.7,54.6 695.2,54.5 695.7,54.5 696.2,54.5 696.7,54.6 697.2,54.6 697.7,54.6 698.2,54.6 698.7,54.6 699.2,54.5 699.7,54.4 700.2,54.3 700.7,54.1 701.2,54.0 701.7,53.9 702.1,53.8 702.6,53.7 703.1,53.6 703.6,53.6 704.1,53.7 704.6,53.8 705.1,53.8 705.6,53.9 706.1,54.0 706.6,54.1 707.1,54.1 707.6,54.1 708.1,54.1 708.6,54.0 709.0,53.9 709.5,53.9 710.0,53.8 710.5,53.7 711.0,53.7 711.5,53.7 712.0,53.7 712.5,53.8 713.0,53.9 713.5,54.0 714.0,54.0 714.5,54.1 715.0,54.2 715.5,54.2 715.9,54.2 716.4,54.1 716.9,54.0 717.4,53.9 717.9,53.7 718.4,53.6 718.9,53.5 719.4,53.4 719.9,53.4 720.4,53.3 720.9,53.3 721.4,53.4 721.9,53.4 722.4,53.4 722.8,53.4 723.3,53.4 723.8,53.4 724.3,53.3 724.8,53.2 725.3,53.1 725.8,52.9 726.3,52.8 726.8,52.6 727.3,52.5 727.8,52.4 728.3,52.4 728.8,52.4 729.3,52.4 729.7,52.4 730.2,52.5 730.7,52.5 731.2,52.6 731.7,52.6 732.2,52.6 732.7,52.6 733.2,52.6 733.7,52.5 734.2,52.4 734.7,52.3 735.2,52.3 735.7,52.2 736.2,52.2 736.6,52.2 737.1,52.2 737.6,52.3 738.1,52.4 738.6,52.5 739.1,52.5 739.6,52.6 740.1,52.7 740.6,52.7 741.1,52.7 741.6,52.7 742.1,52.6 742.6,52.5 743.1,52.4 743.6,52.3 744.0,52.3 744.5,52.2 745.0,52.2 745.5,52.2 746.0,52.2 746.5,52.2 747.0,52.3 747.5,52.3 748.0,52.3 748.5,52.3 749.0,52.3 749.5,52.3 750.0,52.2 750.5,52.0 750.9,51.9 751.4,51.8 751.9,51.6 752.4,51.5 752.9,51.4 753.4,51.4 753.9,51.3 754.4,51.3 754.9,51.4 755.4,51.4 755.9,51.4 756.4,51.5 756.9,51.5 757.4,51.5 757.8,51.4 758.3,51.4 758.8,51.3 759.3,51.2 759.8,51.1 760.3,51.0 760.8,50.9 761.3,50.9 761.8,50.9 762.3,50.9 762.8,50.9 763.3,51.0 763.8,51.1 764.3,51.2 764.7,51.3 765.2,51.3 765.7,51.4 766.2,51.4 766.7,51.3 767.2,51.3 767.7,51.2 768.2,51.1 768.7,51.1 769.2,51.0 769.7,51.0 770.2,51.0 770.7,51.0 771.2,51.0 771.6,51.1 772.1,51.2 772.6,51.2 773.1,51.3 773.6,51.3 774.1,51.3 774.6,51.2 775.1,51.2 775.6,51.1 776.1,51.0 776.6,50.8 777.1,50.7 777.6,50.6 778.1,50.6 778.6,50.5 779.0,50.5 779.5,50.5 780.0,50.5 780.5,50.5 781.0,50.5 781.5,50.6 782.0,50.6 782.5,50.5 783.0,50.5 783.5,50.4 784.0,50.3 784.5,50.2 785.0,50.1 785.5,50.0 785.9,49.9 786.4,49.9 786.9,49.8 787.4,49.8 787.9,49.9 788.4,49.9 788.9,50.0 789.4,50.0 789.9,50.1 790.4,50.1 790.9,50.2 791.4,50.2 791.9,50.1 792.4,50.1 792.8,50.0 793.3,50.0 793.8,49.9 794.3,49.9 794.8,49.8 795.3,49.8 795.8,49.9 796.3,49.9 796.8,50.0 797.3,50.1 797.8,50.1 798.3,50.2 798.8,50.2 799.3,50.2 799.7,50.2 800.2,50.2 800.7,50.1 801.2,50.0 801.7,49.9 802.2,49.8 802.7,49.8 803.2,49.7 803.7,49.7 804.2,49.7 804.7,49.7 805.2,49.7 805.7,49.7 806.2,49.8 806.6,49.8 807.1,49.8 807.6,49.7 808.1,49.7 808.6,49.6 809.1,49.5 809.6,49.4 810.1,49.3 810.6,49.2 811.1,49.1 811.6,49.1 812.1,49.0 812.6,49.0 813.1,49.0 813.5,49.1 814.0,49.1 814.5,49.1 815.0,49.2 815.5,49.2 816.0,49.2 816.5,49.2 817.0,49.1 817.5,49.1 818.0,49.0 818.5,48.9 819.0,48.9 819.5,48.9 820.0,48.8 820.5,48.8 820.9,48.9 821.4,48.9 821.9,49.0 822.4,49.0 822.9,49.1 823.4,49.2 823.9,49.2 824.4,49.2 824.9,49.2 825.4,49.2 825.9,49.1 826.4,49.1 826.9,49.0 827.4,49.0 827.8,48.9 828.3,48.9 828.8,48.9 829.3,48.9 829.8,48.9 830.3,48.9 830.8,49.0 831.3,49.0 831.8,49.0 832.3,49.0 832.8,49.0 833.3,48.9 833.8,48.9 834.3,48.8 834.7,48.7 835.2,48.6 835.7,48.5 836.2,48.5 836.7,48.4 837.2,48.4 837.7,48.4 838.2,48.4 838.7,48.4 839.2,48.4 839.7,48.4 840.2,48.4 840.7,48.4 841.2,48.4 841.6,48.4 842.1,48.3 842.6,48.3 843.1,48.2 843.6,48.1 844.1,48.1 844.6,48.0 845.1,48.0 845.6,48.0 846.1,48.0 846.6,48.0 847.1,48.1 847.6,48.1 848.1,48.2 848.5,48.2 849.0,48.3 849.5,48.3 850.0,48.3 850.5,48.3 851.0,48.2 851.5,48.2 852.0,48.1"/>
  <polygon fill="rgba(52,213,154,0.12)" points="48,312 48.0,311.4 48.5,310.3 49.0,309.3 49.5,308.3 50.0,307.5 50.5,306.8 51.0,306.2 51.5,305.7 51.9,305.3 52.4,305.0 52.9,304.6 53.4,304.2 53.9,303.7 54.4,303.1 54.9,302.3 55.4,301.5 55.9,300.7 56.4,299.8 56.9,298.9 57.4,298.1 57.9,297.4 58.4,296.8 58.8,296.3 59.3,296.0 59.8,295.7 60.3,295.5 60.8,295.4 61.3,295.2 61.8,295.0 62.3,294.7 62.8,294.3 63.3,293.7 63.8,293.0 64.3,292.3 64.8,291.5 65.3,290.7 65.7,290.0 66.2,289.3 66.7,288.7 67.2,288.2 67.7,287.8 68.2,287.5 68.7,287.3 69.2,287.1 69.7,286.8 70.2,286.4 70.7,285.9 71.2,285.4 71.7,284.6 72.2,283.8 72.6,282.9 73.1,281.9 73.6,281.0 74.1,280.0 74.6,279.2 75.1,278.4 75.6,277.8 76.1,277.2 76.6,276.8 77.1,276.4 77.6,276.1 78.1,275.7 78.6,275.3 79.1,274.8 79.5,274.2 80.0,273.4 80.5,272.6 81.0,271.7 81.5,270.8 82.0,270.0 82.5,269.1 83.0,268.4 83.5,267.8 84.0,267.3 84.5,267.0 85.0,266.7 85.5,266.6 86.0,266.4 86.5,266.3 86.9,266.1 87.4,265.8 87.9,265.4 88.4,264.9 88.9,264.3 89.4,263.6 89.9,262.9 90.4,262.2 90.9,261.6 91.4,261.0 91.9,260.5 92.4,260.2 92.9,259.9 93.4,259.8 93.8,259.6 94.3,259.5 94.8,259.4 95.3,259.1 95.8,258.8 96.3,258.4 96.8,257.8 97.3,257.1 97.8,256.3 98.3,255.5 98.8,254.7 99.3,253.9 99.8,253.2 100.3,252.5 100.7,252.0 101.2,251.6 101.7,251.2 102.2,250.9 102.7,250.6 103.2,250.3 103.7,249.9 104.2,249.4 104.7,248.8 105.2,248.1 105.7,247.4 106.2,246.5 106.7,245.6 107.2,244.7 107.6,243.9 108.1,243.2 108.6,242.6 109.1,242.1 109.6,241.7 110.1,241.4 110.6,241.2 111.1,241.1 111.6,240.9 112.1,240.6 112.6,240.3 113.1,239.9 113.6,239.4 114.1,238.8 114.5,238.2 115.0,237.5 115.5,236.8 116.0,236.2 116.5,235.7 117.0,235.3 117.5,235.0 118.0,234.8 118.5,234.7 119.0,234.7 119.5,234.7 120.0,234.6 120.5,234.5 121.0,234.3 121.4,233.9 121.9,233.5 122.4,232.9 122.9,232.3 123.4,231.6 123.9,230.9 124.4,230.3 124.9,229.7 125.4,229.2 125.9,228.8 126.4,228.5 126.9,228.3 127.4,228.1 127.9,227.9 128.4,227.7 128.8,227.4 129.3,227.0 129.8,226.4 130.3,225.8 130.8,225.1 131.3,224.3 131.8,223.5 132.3,222.6 132.8,221.8 133.3,221.1 133.8,220.5 134.3,220.1 134.8,219.7 135.3,219.4 135.7,219.2 136.2,219.0 136.7,218.8 137.2,218.5 137.7,218.2 138.2,217.7 138.7,217.2 139.2,216.5 139.7,215.9 140.2,215.2 140.7,214.5 141.2,213.9 141.7,213.4 142.2,213.0 142.6,212.7 143.1,212.6 143.6,212.5 144.1,212.5 144.6,212.5 145.1,212.4 145.6,212.4 146.1,212.2 146.6,211.9 147.1,211.5 147.6,211.1 148.1,210.5 148.6,209.9 149.1,209.4 149.5,208.8 150.0,208.4 150.5,208.0 151.0,207.8 151.5,207.6 152.0,207.5 152.5,207.4 153.0,207.3 153.5,207.2 154.0,207.0 154.5,206.7 155.0,206.3 155.5,205.8 156.0,205.2 156.4,204.5 156.9,203.7 157.4,203.0 157.9,202.3 158.4,201.7 158.9,201.2 159.4,200.7 159.9,200.4 160.4,200.2 160.9,199.9 161.4,199.8 161.9,199.5 162.4,199.2 162.9,198.9 163.4,198.4 163.8,197.9 164.3,197.2 164.8,196.5 165.3,195.8 165.8,195.1 166.3,194.5 166.8,194.0 167.3,193.6 167.8,193.3 168.3,193.1 168.8,193.0 169.3,192.9 169.8,192.9 170.3,192.8 170.7,192.8 171.2,192.6 171.7,192.3 172.2,192.0 172.7,191.5 173.2,191.0 173.7,190.5 174.2,190.0 174.7,189.5 175.2,189.1 175.7,188.9 176.2,188.7 176.7,188.6 177.2,188.6 177.6,188.6 178.1,188.6 178.6,188.6 179.1,188.5 179.6,188.4 180.1,188.1 180.6,187.7 181.1,187.2 181.6,186.6 182.1,186.0 182.6,185.3 183.1,184.8 183.6,184.2 184.1,183.8 184.5,183.5 185.0,183.2 185.5,183.1 186.0,182.9 186.5,182.8 187.0,182.6 187.5,182.3 188.0,182.0 188.5,181.6 189.0,181.0 189.5,180.4 190.0,179.7 190.5,179.0 191.0,178.3 191.4,177.7 191.9,177.2 192.4,176.7 192.9,176.4 193.4,176.2 193.9,176.0 194.4,175.9 194.9,175.9 195.4,175.8 195.9,175.7 196.4,175.4 196.9,175.1 197.4,174.8 197.9,174.3 198.3,173.8 198.8,173.3 199.3,172.8 199.8,172.3 200.3,172.0 200.8,171.7 201.3,171.6 201.8,171.5 202.3,171.6 202.8,171.6 203.3,171.7 203.8,171.8 204.3,171.8 204.8,171.6 205.3,171.4 205.7,171.1 206.2,170.7 206.7,170.2 207.2,169.7 207.7,169.2 208.2,168.8 208.7,168.4 209.2,168.1 209.7,167.9 210.2,167.7 210.7,167.6 211.2,167.6 211.7,167.5 212.2,167.4 212.6,167.3 213.1,167.0 213.6,166.6 214.1,166.1 214.6,165.6 215.1,164.9 215.6,164.3 216.1,163.6 216.6,163.0 217.1,162.5 217.6,162.1 218.1,161.8 218.6,161.5 219.1,161.4 219.5,161.3 220.0,161.2 220.5,161.1 221.0,160.9 221.5,160.6 222.0,160.3 222.5,159.9 223.0,159.4 223.5,158.8 224.0,158.3 224.5,157.8 225.0,157.3 225.5,156.9 226.0,156.7 226.4,156.5 226.9,156.5 227.4,156.5 227.9,156.6 228.4,156.6 228.9,156.7 229.4,156.7 229.9,156.6 230.4,156.4 230.9,156.2 231.4,155.8 231.9,155.4 232.4,155.0 232.9,154.6 233.3,154.2 233.8,153.9 234.3,153.7 234.8,153.6 235.3,153.5 235.8,153.5 236.3,153.6 236.8,153.6 237.3,153.6 237.8,153.5 238.3,153.4 238.8,153.1 239.3,152.7 239.8,152.2 240.3,151.7 240.7,151.1 241.2,150.5 241.7,150.0 242.2,149.6 242.7,149.2 243.2,148.9 243.7,148.7 244.2,148.6 244.7,148.5 245.2,148.4 245.7,148.3 246.2,148.1 246.7,147.8 247.2,147.5 247.6,147.0 248.1,146.5 248.6,145.9 249.1,145.4 249.6,144.8 250.1,144.4 250.6,144.0 251.1,143.7 251.6,143.5 252.1,143.4 252.6,143.4 253.1,143.4 253.6,143.4 254.1,143.4 254.5,143.4 255.0,143.3 255.5,143.1 256.0,142.8 256.5,142.5 257.0,142.1 257.5,141.7 258.0,141.4 258.5,141.0 259.0,140.8 259.5,140.6 260.0,140.6 260.5,140.6 261.0,140.7 261.4,140.8 261.9,140.9 262.4,140.9 262.9,140.9 263.4,140.9 263.9,140.7 264.4,140.4 264.9,140.0 265.4,139.6 265.9,139.1 266.4,138.6 266.9,138.2 267.4,137.9 267.9,137.6 268.3,137.4 268.8,137.3 269.3,137.2 269.8,137.1 270.3,137.1 270.8,137.0 271.3,136.9 271.8,136.6 272.3,136.3 272.8,135.9 273.3,135.3 273.8,134.8 274.3,134.2 274.8,133.7 275.2,133.2 275.7,132.8 276.2,132.5 276.7,132.3 277.2,132.1 277.7,132.1 278.2,132.1 278.7,132.0 279.2,132.0 279.7,131.9 280.2,131.8 280.7,131.6 281.2,131.3 281.7,130.9 282.2,130.5 282.6,130.1 283.1,129.7 283.6,129.4 284.1,129.1 284.6,129.0 285.1,128.9 285.6,129.0 286.1,129.1 286.6,129.2 287.1,129.3 287.6,129.4 288.1,129.5 288.6,129.4 289.1,129.3 289.5,129.1 290.0,128.8 290.5,128.4 291.0,128.0 291.5,127.7 292.0,127.4 292.5,127.1 293.0,126.9 293.5,126.8 294.0,126.8 294.5,126.8 295.0,126.8 295.5,126.9 296.0,126.8 296.4,126.7 296.9,126.6 297.4,126.3 297.9,125.9 298.4,125.5 298.9,125.0 299.4,124.5 299.9,124.0 300.4,123.5 300.9,123.1 301.4,122.8 301.9,122.6 302.4,122.5 302.9,122.4 303.3,122.3 303.8,122.3 304.3,122.2 304.8,122.1 305.3,121.9 305.8,121.7 306.3,121.3 306.8,120.9 307.3,120.5 307.8,120.0 308.3,119.6 308.8,119.3 309.3,119.0 309.8,118.8 310.2,118.7 310.7,118.8 311.2,118.8 311.7,118.9 312.2,119.1 312.7,119.2 313.2,119.2 313.7,119.2 314.2,119.0 314.7,118.8 315.2,118.6 315.7,118.3 316.2,117.9 316.7,117.6 317.2,117.4 317.6,117.2 318.1,117.1 318.6,117.1 319.1,117.1 319.6,117.2 320.1,117.3 320.6,117.4 321.1,117.5 321.6,117.4 322.1,117.3 322.6,117.1 323.1,116.8 323.6,116.5 324.1,116.1 324.5,115.6 325.0,115.2 325.5,114.8 326.0,114.5 326.5,114.2 327.0,114.1 327.5,114.0 328.0,113.9 328.5,113.9 329.0,113.9 329.5,113.8 330.0,113.7 330.5,113.5 331.0,113.2 331.4,112.8 331.9,112.4 332.4,111.9 332.9,111.5 333.4,111.0 333.9,110.7 334.4,110.4 334.9,110.2 335.4,110.0 335.9,110.0 336.4,110.0 336.9,110.1 337.4,110.2 337.9,110.2 338.3,110.2 338.8,110.1 339.3,110.0 339.8,109.8 340.3,109.5 340.8,109.2 341.3,108.9 341.8,108.6 342.3,108.4 342.8,108.2 343.3,108.2 343.8,108.2 344.3,108.3 344.8,108.4 345.2,108.5 345.7,108.7 346.2,108.8 346.7,108.8 347.2,108.8 347.7,108.7 348.2,108.5 348.7,108.2 349.2,107.8 349.7,107.5 350.2,107.1 350.7,106.8 351.2,106.6 351.7,106.4 352.1,106.3 352.6,106.3 353.1,106.3 353.6,106.3 354.1,106.3 354.6,106.3 355.1,106.2 355.6,106.0 356.1,105.8 356.6,105.4 357.1,105.0 357.6,104.6 358.1,104.1 358.6,103.7 359.1,103.3 359.5,103.0 360.0,102.8 360.5,102.6 361.0,102.6 361.5,102.6 362.0,102.6 362.5,102.6 363.0,102.6 363.5,102.5 364.0,102.4 364.5,102.2 365.0,102.0 365.5,101.7 366.0,101.4 366.4,101.0 366.9,100.7 367.4,100.5 367.9,100.3 368.4,100.2 368.9,100.2 369.4,100.3 369.9,100.5 370.4,100.6 370.9,100.8 371.4,100.9 371.9,101.0 372.4,100.9 372.9,100.9 373.3,100.7 373.8,100.5 374.3,100.2 374.8,99.9 375.3,99.7 375.8,99.4 376.3,99.3 376.8,99.2 377.3,99.2 377.8,99.2 378.3,99.3 378.8,99.4 379.3,99.4 379.8,99.4 380.2,99.4 380.7,99.3 381.2,99.1 381.7,98.8 382.2,98.4 382.7,98.0 383.2,97.6 383.7,97.2 384.2,96.9 384.7,96.6 385.2,96.4 385.7,96.3 386.2,96.2 386.7,96.2 387.1,96.2 387.6,96.2 388.1,96.1 388.6,96.1 389.1,95.9 389.6,95.7 390.1,95.4 390.6,95.1 391.1,94.7 391.6,94.3 392.1,94.0 392.6,93.7 393.1,93.5 393.6,93.4 394.1,93.4 394.5,93.4 395.0,93.5 395.5,93.7 396.0,93.8 396.5,93.9 397.0,93.9 397.5,93.9 398.0,93.8 398.5,93.7 399.0,93.5 399.5,93.2 400.0,93.0 400.5,92.8 401.0,92.6 401.4,92.5 401.9,92.5 402.4,92.5 402.9,92.6 403.4,92.7 403.9,92.8 404.4,93.0 404.9,93.1 405.4,93.1 405.9,93.0 406.4,92.9 406.9,92.7 407.4,92.4 407.9,92.1 408.3,91.7 408.8,91.4 409.3,91.1 409.8,90.9 410.3,90.7 410.8,90.6 411.3,90.6 411.8,90.6 412.3,90.6 412.8,90.6 413.3,90.6 413.8,90.5 414.3,90.3 414.8,90.1 415.2,89.8 415.7,89.5 416.2,89.1 416.7,88.7 417.2,88.3 417.7,88.1 418.2,87.8 418.7,87.7 419.2,87.6 419.7,87.6 420.2,87.7 420.7,87.7 421.2,87.8 421.7,87.9 422.1,87.9 422.6,87.8 423.1,87.7 423.6,87.5 424.1,87.3 424.6,87.1 425.1,86.8 425.6,86.6 426.1,86.4 426.6,86.4 427.1,86.3 427.6,86.4 428.1,86.5 428.6,86.6 429.0,86.8 429.5,87.0 430.0,87.1 430.5,87.2 431.0,87.1 431.5,87.1 432.0,86.9 432.5,86.7 433.0,86.4 433.5,86.2 434.0,85.9 434.5,85.7 435.0,85.6 435.5,85.5 436.0,85.4 436.4,85.4 436.9,85.5 437.4,85.5 437.9,85.6 438.4,85.6 438.9,85.5 439.4,85.4 439.9,85.2 440.4,84.9 440.9,84.6 441.4,84.2 441.9,83.9 442.4,83.5 442.9,83.2 443.3,83.0 443.8,82.8 444.3,82.8 444.8,82.7 445.3,82.7 445.8,82.8 446.3,82.8 446.8,82.8 447.3,82.8 447.8,82.7 448.3,82.5 448.8,82.3 449.3,82.1 449.8,81.8 450.2,81.5 450.7,81.3 451.2,81.1 451.7,81.0 452.2,81.0 452.7,81.0 453.2,81.1 453.7,81.2 454.2,81.4 454.7,81.5 455.2,81.7 455.7,81.7 456.2,81.7 456.7,81.7 457.1,81.5 457.6,81.4 458.1,81.2 458.6,81.0 459.1,80.8 459.6,80.6 460.1,80.5 460.6,80.5 461.1,80.5 461.6,80.6 462.1,80.7 462.6,80.8 463.1,80.9 463.6,81.0 464.0,80.9 464.5,80.9 465.0,80.7 465.5,80.5 466.0,80.2 466.5,79.9 467.0,79.6 467.5,79.3 468.0,79.0 468.5,78.8 469.0,78.7 469.5,78.6 470.0,78.6 470.5,78.6 471.0,78.6 471.4,78.6 471.9,78.6 472.4,78.5 472.9,78.4 473.4,78.2 473.9,78.0 474.4,77.7 474.9,77.4 475.4,77.1 475.9,76.8 476.4,76.6 476.9,76.5 477.4,76.4 477.9,76.4 478.3,76.5 478.8,76.6 479.3,76.7 479.8,76.8 480.3,76.9 480.8,76.9 481.3,76.9 481.8,76.9 482.3,76.7 482.8,76.6 483.3,76.4 483.8,76.2 484.3,76.0 484.8,75.9 485.2,75.9 485.7,75.9 486.2,75.9 486.7,76.0 487.2,76.2 487.7,76.3 488.2,76.5 488.7,76.6 489.2,76.6 489.7,76.6 490.2,76.5 490.7,76.3 491.2,76.1 491.7,75.8 492.1,75.6 492.6,75.3 493.1,75.1 493.6,75.0 494.1,74.9 494.6,74.8 495.1,74.8 495.6,74.9 496.1,74.9 496.6,74.9 497.1,74.9 497.6,74.9 498.1,74.7 498.6,74.6 499.0,74.3 499.5,74.0 500.0,73.7 500.5,73.4 501.0,73.1 501.5,72.9 502.0,72.7 502.5,72.6 503.0,72.6 503.5,72.6 504.0,72.7 504.5,72.7 505.0,72.8 505.5,72.9 505.9,72.9 506.4,72.8 506.9,72.7 507.4,72.6 507.9,72.4 508.4,72.2 508.9,72.0 509.4,71.8 509.9,71.7 510.4,71.7 510.9,71.7 511.4,71.7 511.9,71.9 512.4,72.0 512.9,72.2 513.3,72.3 513.8,72.4 514.3,72.5 514.8,72.5 515.3,72.4 515.8,72.3 516.3,72.2 516.8,72.0 517.3,71.8 517.8,71.6 518.3,71.5 518.8,71.4 519.3,71.3 519.8,71.3 520.2,71.4 520.7,71.5 521.2,71.5 521.7,71.6 522.2,71.6 522.7,71.6 523.2,71.5 523.7,71.3 524.2,71.1 524.7,70.8 525.2,70.5 525.7,70.2 526.2,70.0 526.7,69.8 527.1,69.6 527.6,69.5 528.1,69.4 528.6,69.4 529.1,69.5 529.6,69.5 530.1,69.5 530.6,69.5 531.1,69.5 531.6,69.4 532.1,69.3 532.6,69.1 533.1,68.9 533.6,68.7 534.0,68.4 534.5,68.3 535.0,68.1 535.5,68.0 536.0,68.0 536.5,68.1 537.0,68.2 537.5,68.3 538.0,68.5 538.5,68.6 539.0,68.7 539.5,68.8 540.0,68.8 540.5,68.7 540.9,68.6 541.4,68.5 541.9,68.3 542.4,68.2 542.9,68.0 543.4,67.9 543.9,67.9 544.4,67.9 544.9,68.0 545.4,68.1 545.9,68.2 546.4,68.3 546.9,68.4 547.4,68.4 547.9,68.4 548.3,68.4 548.8,68.3 549.3,68.1 549.8,67.9 550.3,67.6 550.8,67.4 551.3,67.2 551.8,67.0 552.3,66.8 552.8,66.7 553.3,66.7 553.8,66.7 554.3,66.7 554.8,66.8 555.2,66.8 555.7,66.8 556.2,66.7 556.7,66.6 557.2,66.5 557.7,66.3 558.2,66.0 558.7,65.8 559.2,65.5 559.7,65.3 560.2,65.2 560.7,65.1 561.2,65.0 561.7,65.0 562.1,65.1 562.6,65.2 563.1,65.3 563.6,65.4 564.1,65.5 564.6,65.5 565.1,65.5 565.6,65.4 566.1,65.3 566.6,65.2 567.1,65.0 567.6,64.9 568.1,64.8 568.6,64.7 569.0,64.7 569.5,64.7 570.0,64.8 570.5,64.9 571.0,65.0 571.5,65.2 572.0,65.3 572.5,65.4 573.0,65.4 573.5,65.4 574.0,65.4 574.5,65.2 575.0,65.1 575.5,64.9 575.9,64.7 576.4,64.5 576.9,64.4 577.4,64.3 577.9,64.2 578.4,64.2 578.9,64.2 579.4,64.3 579.9,64.3 580.4,64.4 580.9,64.4 581.4,64.3 581.9,64.2 582.4,64.1 582.8,63.9 583.3,63.6 583.8,63.4 584.3,63.1 584.8,62.9 585.3,62.7 585.8,62.6 586.3,62.6 586.8,62.5 587.3,62.6 587.8,62.6 588.3,62.7 588.8,62.7 589.3,62.8 589.8,62.8 590.2,62.7 590.7,62.6 591.2,62.5 591.7,62.4 592.2,62.2 592.7,62.1 593.2,61.9 593.7,61.8 594.2,61.8 594.7,61.8 595.2,61.9 595.7,62.0 596.2,62.2 596.7,62.3 597.1,62.4 597.6,62.5 598.1,62.6 598.6,62.6 599.1,62.6 599.6,62.5 600.1,62.3 600.6,62.2 601.1,62.1 601.6,61.9 602.1,61.8 602.6,61.8 603.1,61.8 603.6,61.8 604.0,61.9 604.5,62.0 605.0,62.0 605.5,62.1 606.0,62.1 606.5,62.1 607.0,62.0 607.5,61.9 608.0,61.7 608.5,61.5 609.0,61.3 609.5,61.1 610.0,60.9 610.5,60.7 610.9,60.6 611.4,60.5 611.9,60.5 612.4,60.5 612.9,60.5 613.4,60.6 613.9,60.6 614.4,60.6 614.9,60.6 615.4,60.5 615.9,60.4 616.4,60.2 616.9,60.1 617.4,59.9 617.8,59.7 618.3,59.6 618.8,59.4 619.3,59.4 619.8,59.4 620.3,59.4 620.8,59.5 621.3,59.6 621.8,59.8 622.3,59.9 622.8,60.0 623.3,60.0 623.8,60.0 624.3,60.0 624.8,59.9 625.2,59.8 625.7,59.7 626.2,59.6 626.7,59.5 627.2,59.4 627.7,59.4 628.2,59.4 628.7,59.5 629.2,59.6 629.7,59.7 630.2,59.8 630.7,59.9 631.2,60.0 631.7,60.0 632.1,59.9 632.6,59.8 633.1,59.7 633.6,59.5 634.1,59.4 634.6,59.2 635.1,59.0 635.6,58.9 636.1,58.8 636.6,58.7 637.1,58.7 637.6,58.7 638.1,58.8 638.6,58.8 639.0,58.8 639.5,58.8 640.0,58.8 640.5,58.7 641.0,58.5 641.5,58.4 642.0,58.2 642.5,58.0 643.0,57.8 643.5,57.6 644.0,57.5 644.5,57.4 645.0,57.4 645.5,57.4 645.9,57.5 646.4,57.6 646.9,57.7 647.4,57.7 647.9,57.8 648.4,57.8 648.9,57.8 649.4,57.7 649.9,57.6 650.4,57.5 650.9,57.4 651.4,57.3 651.9,57.2 652.4,57.2 652.8,57.2 653.3,57.2 653.8,57.3 654.3,57.4 654.8,57.5 655.3,57.6 655.8,57.8 656.3,57.8 656.8,57.9 657.3,57.9 657.8,57.8 658.3,57.7 658.8,57.6 659.3,57.5 659.7,57.3 660.2,57.2 660.7,57.1 661.2,57.0 661.7,57.0 662.2,57.0 662.7,57.1 663.2,57.1 663.7,57.2 664.2,57.2 664.7,57.2 665.2,57.2 665.7,57.1 666.2,57.0 666.7,56.8 667.1,56.6 667.6,56.4 668.1,56.3 668.6,56.1 669.1,56.0 669.6,55.9 670.1,55.8 670.6,55.8 671.1,55.9 671.6,55.9 672.1,56.0 672.6,56.0 673.1,56.0 673.6,56.0 674.0,56.0 674.5,55.9 675.0,55.8 675.5,55.7 676.0,55.5 676.5,55.4 677.0,55.3 677.5,55.3 678.0,55.2 678.5,55.3 679.0,55.3 679.5,55.4 680.0,55.5 680.5,55.7 680.9,55.8 681.4,55.8 681.9,55.9 682.4,55.9 682.9,55.9 683.4,55.8 683.9,55.7 684.4,55.6 684.9,55.5 685.4,55.4 685.9,55.4 686.4,55.3 686.9,55.3 687.4,55.4 687.8,55.5 688.3,55.5 688.8,55.6 689.3,55.7 689.8,55.7 690.3,55.7 690.8,55.6 691.3,55.5 691.8,55.4 692.3,55.2 692.8,55.1 693.3,54.9 693.8,54.8 694.3,54.6 694.7,54.6 695.2,54.5 695.7,54.5 696.2,54.5 696.7,54.6 697.2,54.6 697.7,54.6 698.2,54.6 698.7,54.6 699.2,54.5 699.7,54.4 700.2,54.3 700.7,54.1 701.2,54.0 701.7,53.9 702.1,53.8 702.6,53.7 703.1,53.6 703.6,53.6 704.1,53.7 704.6,53.8 705.1,53.8 705.6,53.9 706.1,54.0 706.6,54.1 707.1,54.1 707.6,54.1 708.1,54.1 708.6,54.0 709.0,53.9 709.5,53.9 710.0,53.8 710.5,53.7 711.0,53.7 711.5,53.7 712.0,53.7 712.5,53.8 713.0,53.9 713.5,54.0 714.0,54.0 714.5,54.1 715.0,54.2 715.5,54.2 715.9,54.2 716.4,54.1 716.9,54.0 717.4,53.9 717.9,53.7 718.4,53.6 718.9,53.5 719.4,53.4 719.9,53.4 720.4,53.3 720.9,53.3 721.4,53.4 721.9,53.4 722.4,53.4 722.8,53.4 723.3,53.4 723.8,53.4 724.3,53.3 724.8,53.2 725.3,53.1 725.8,52.9 726.3,52.8 726.8,52.6 727.3,52.5 727.8,52.4 728.3,52.4 728.8,52.4 729.3,52.4 729.7,52.4 730.2,52.5 730.7,52.5 731.2,52.6 731.7,52.6 732.2,52.6 732.7,52.6 733.2,52.6 733.7,52.5 734.2,52.4 734.7,52.3 735.2,52.3 735.7,52.2 736.2,52.2 736.6,52.2 737.1,52.2 737.6,52.3 738.1,52.4 738.6,52.5 739.1,52.5 739.6,52.6 740.1,52.7 740.6,52.7 741.1,52.7 741.6,52.7 742.1,52.6 742.6,52.5 743.1,52.4 743.6,52.3 744.0,52.3 744.5,52.2 745.0,52.2 745.5,52.2 746.0,52.2 746.5,52.2 747.0,52.3 747.5,52.3 748.0,52.3 748.5,52.3 749.0,52.3 749.5,52.3 750.0,52.2 750.5,52.0 750.9,51.9 751.4,51.8 751.9,51.6 752.4,51.5 752.9,51.4 753.4,51.4 753.9,51.3 754.4,51.3 754.9,51.4 755.4,51.4 755.9,51.4 756.4,51.5 756.9,51.5 757.4,51.5 757.8,51.4 758.3,51.4 758.8,51.3 759.3,51.2 759.8,51.1 760.3,51.0 760.8,50.9 761.3,50.9 761.8,50.9 762.3,50.9 762.8,50.9 763.3,51.0 763.8,51.1 764.3,51.2 764.7,51.3 765.2,51.3 765.7,51.4 766.2,51.4 766.7,51.3 767.2,51.3 767.7,51.2 768.2,51.1 768.7,51.1 769.2,51.0 769.7,51.0 770.2,51.0 770.7,51.0 771.2,51.0 771.6,51.1 772.1,51.2 772.6,51.2 773.1,51.3 773.6,51.3 774.1,51.3 774.6,51.2 775.1,51.2 775.6,51.1 776.1,51.0 776.6,50.8 777.1,50.7 777.6,50.6 778.1,50.6 778.6,50.5 779.0,50.5 779.5,50.5 780.0,50.5 780.5,50.5 781.0,50.5 781.5,50.6 782.0,50.6 782.5,50.5 783.0,50.5 783.5,50.4 784.0,50.3 784.5,50.2 785.0,50.1 785.5,50.0 785.9,49.9 786.4,49.9 786.9,49.8 787.4,49.8 787.9,49.9 788.4,49.9 788.9,50.0 789.4,50.0 789.9,50.1 790.4,50.1 790.9,50.2 791.4,50.2 791.9,50.1 792.4,50.1 792.8,50.0 793.3,50.0 793.8,49.9 794.3,49.9 794.8,49.8 795.3,49.8 795.8,49.9 796.3,49.9 796.8,50.0 797.3,50.1 797.8,50.1 798.3,50.2 798.8,50.2 799.3,50.2 799.7,50.2 800.2,50.2 800.7,50.1 801.2,50.0 801.7,49.9 802.2,49.8 802.7,49.8 803.2,49.7 803.7,49.7 804.2,49.7 804.7,49.7 805.2,49.7 805.7,49.7 806.2,49.8 806.6,49.8 807.1,49.8 807.6,49.7 808.1,49.7 808.6,49.6 809.1,49.5 809.6,49.4 810.1,49.3 810.6,49.2 811.1,49.1 811.6,49.1 812.1,49.0 812.6,49.0 813.1,49.0 813.5,49.1 814.0,49.1 814.5,49.1 815.0,49.2 815.5,49.2 816.0,49.2 816.5,49.2 817.0,49.1 817.5,49.1 818.0,49.0 818.5,48.9 819.0,48.9 819.5,48.9 820.0,48.8 820.5,48.8 820.9,48.9 821.4,48.9 821.9,49.0 822.4,49.0 822.9,49.1 823.4,49.2 823.9,49.2 824.4,49.2 824.9,49.2 825.4,49.2 825.9,49.1 826.4,49.1 826.9,49.0 827.4,49.0 827.8,48.9 828.3,48.9 828.8,48.9 829.3,48.9 829.8,48.9 830.3,48.9 830.8,49.0 831.3,49.0 831.8,49.0 832.3,49.0 832.8,49.0 833.3,48.9 833.8,48.9 834.3,48.8 834.7,48.7 835.2,48.6 835.7,48.5 836.2,48.5 836.7,48.4 837.2,48.4 837.7,48.4 838.2,48.4 838.7,48.4 839.2,48.4 839.7,48.4 840.2,48.4 840.7,48.4 841.2,48.4 841.6,48.4 842.1,48.3 842.6,48.3 843.1,48.2 843.6,48.1 844.1,48.1 844.6,48.0 845.1,48.0 845.6,48.0 846.1,48.0 846.6,48.0 847.1,48.1 847.6,48.1 848.1,48.2 848.5,48.2 849.0,48.3 849.5,48.3 850.0,48.3 850.5,48.3 851.0,48.2 851.5,48.2 852.0,48.1 852,312"/>
</svg>