<svg xmlns="http://www.w3.org/2000/svg" width="900" height="360" viewBox="0 0 900 360">
<rect width="100%" height="100%" fill="#0b1220"/>
<text x="40" y="30" fill="#e2e8f0" font-size="18" font-family="Inter,sans-serif" font-weight="700">PnL по типу выхода</text>
<text x="40" y="82" fill="#94a3b8" font-size="13" font-family="Inter,sans-serif">take profit</text>
<rect x="220.0" y="60" width="620.0" height="36" rx="6" fill="#22c55e"/>
<text x="848.0" y="82" fill="#e2e8f0" font-size="12" font-family="Inter,sans-serif" text-anchor="start">$+195</text>
<text x="40" y="132" fill="#94a3b8" font-size="13" font-family="Inter,sans-serif">trailing take profit</text>
<rect x="220.0" y="110" width="37.2" height="36" rx="6" fill="#22c55e"/>
<text x="265.1871704570298" y="132" fill="#e2e8f0" font-size="12" font-family="Inter,sans-serif" text-anchor="start">$+12</text>
<text x="40" y="182" fill="#94a3b8" font-size="13" font-family="Inter,sans-serif">manual web</text>
<rect x="220.0" y="160" width="8.5" height="36" rx="6" fill="#22c55e"/>
<text x="236.47863548282714" y="182" fill="#e2e8f0" font-size="12" font-family="Inter,sans-serif" text-anchor="start">$+3</text>
<text x="40" y="232" fill="#94a3b8" font-size="13" font-family="Inter,sans-serif">outcomePrices</text>
<rect x="185.0" y="210" width="35.0" height="36" rx="6" fill="#ef4444"/>
<text x="177.03852677321856" y="232" fill="#e2e8f0" font-size="12" font-family="Inter,sans-serif" text-anchor="end">$-11</text>
<text x="40" y="282" fill="#94a3b8" font-size="13" font-family="Inter,sans-serif">momentum cut</text>
<rect x="165.1" y="260" width="54.9" height="36" rx="6" fill="#ef4444"/>
<text x="157.1481580392408" y="282" fill="#e2e8f0" font-size="12" font-family="Inter,sans-serif" text-anchor="end">$-17</text>
<text x="40" y="332" fill="#94a3b8" font-size="13" font-family="Inter,sans-serif">midpoint</text>
<rect x="162.8" y="310" width="57.2" height="36" rx="6" fill="#ef4444"/>
<text x="154.78332665464436" y="332" fill="#e2e8f0" font-size="12" font-family="Inter,sans-serif" text-anchor="end">$-18</text>
</svg>